<svg width="614" height="545" viewBox="0 0 614 545" fill="none" xmlns="http://www.w3.org/2000/svg">
<g clip-path="url(#clip0_482_5689)">
<g filter="url(#filter0_d_482_5689)">
<path d="M238.724 120.971C216.754 120.971 198.853 103.069 198.853 81.0992C198.853 59.1291 216.754 41.2275 238.724 41.2275H462.629C484.599 41.2275 502.501 59.1291 502.501 81.0992C502.501 103.069 484.599 120.971 462.629 120.971H241.572C240.623 120.971 239.673 120.971 238.724 120.971Z" fill="url(#paint0_linear_482_5689)"/>
</g>
<path d="M462.629 113.105H238.725V48.958H462.629C480.395 48.958 494.771 63.3335 494.771 81.0994C494.771 98.8653 480.395 113.105 462.629 113.105Z" fill="url(#paint1_linear_482_5689)"/>
<path d="M239.02 49.1152C221.254 49.1152 206.879 63.4907 206.879 81.2566C206.879 99.0226 221.254 113.398 239.02 113.398C248.514 113.398 256.922 109.33 262.889 102.82C276.586 89.2581 274.417 56.303 320.527 49.1152H239.02Z" fill="url(#paint2_linear_482_5689)"/>
<g filter="url(#filter1_d_482_5689)">
<path d="M238.724 105.781C252.356 105.781 263.407 94.7302 263.407 81.0984C263.407 67.4667 252.356 56.416 238.724 56.416C225.093 56.416 214.042 67.4667 214.042 81.0984C214.042 94.7302 225.093 105.781 238.724 105.781Z" fill="url(#paint3_linear_482_5689)"/>
</g>
<g filter="url(#filter2_d_482_5689)">
<path d="M325.657 216.716C303.687 216.716 285.785 198.814 285.785 176.844C285.785 154.874 303.687 136.973 325.657 136.973H549.562C571.532 136.973 589.433 154.874 589.433 176.844C589.433 198.814 571.532 216.716 549.562 216.716H328.505C327.555 216.58 326.606 216.716 325.657 216.716Z" fill="url(#paint4_linear_482_5689)"/>
</g>
<path d="M549.755 209.313H325.851V145.166H549.755C567.521 145.166 581.897 159.541 581.897 177.307C581.897 194.938 567.521 209.313 549.755 209.313Z" fill="url(#paint5_linear_482_5689)"/>
<path d="M325.248 144.074C307.482 144.074 293.106 158.45 293.106 176.216C293.106 193.982 307.482 208.357 325.248 208.357C334.741 208.357 343.149 204.288 349.117 197.779C362.814 184.217 360.644 151.262 406.754 144.074H325.248Z" fill="url(#paint6_linear_482_5689)"/>
<g filter="url(#filter3_d_482_5689)">
<path d="M325.656 201.389C339.288 201.389 350.338 190.339 350.338 176.707C350.338 163.075 339.288 152.024 325.656 152.024C312.024 152.024 300.974 163.075 300.974 176.707C300.974 190.339 312.024 201.389 325.656 201.389Z" fill="url(#paint7_linear_482_5689)"/>
</g>
<g filter="url(#filter4_d_482_5689)">
<path d="M347.168 312.228C325.197 312.228 307.296 294.326 307.296 272.356C307.296 250.386 325.197 232.484 347.168 232.484H571.072C593.042 232.484 610.944 250.386 610.944 272.356C610.944 294.326 593.042 312.228 571.072 312.228H350.015C348.931 312.092 347.981 312.228 347.168 312.228Z" fill="url(#paint8_linear_482_5689)"/>
</g>
<path d="M569.635 304.462H345.73V240.314H569.635C587.401 240.314 601.777 254.69 601.777 272.456C601.777 290.086 587.401 304.462 569.635 304.462Z" fill="url(#paint9_linear_482_5689)"/>
<path d="M345.987 240.125C328.221 240.125 313.846 254.5 313.846 272.266C313.846 290.032 328.221 304.408 345.987 304.408C355.48 304.408 363.889 300.339 369.856 293.83C383.553 280.268 381.383 247.313 427.493 240.125H345.987Z" fill="url(#paint10_linear_482_5689)"/>
<g filter="url(#filter5_d_482_5689)">
<path d="M346.168 297.131C359.8 297.131 370.85 286.081 370.85 272.449C370.85 258.817 359.8 247.767 346.168 247.767C332.536 247.767 321.485 258.817 321.485 272.449C321.485 286.081 332.536 297.131 346.168 297.131Z" fill="url(#paint11_linear_482_5689)"/>
</g>
<g filter="url(#filter6_d_482_5689)">
<path d="M325.34 407.183C303.37 407.183 285.469 389.281 285.469 367.311C285.469 345.341 303.37 327.439 325.34 327.439H549.245C571.215 327.439 589.117 345.341 589.117 367.311C589.117 389.281 571.215 407.183 549.245 407.183H328.188C327.239 407.183 326.29 407.183 325.34 407.183Z" fill="url(#paint12_linear_482_5689)"/>
</g>
<path d="M549.563 400.069H325.658V335.922H549.563C567.329 335.922 581.704 350.297 581.704 368.063C581.704 385.694 567.329 400.069 549.563 400.069Z" fill="url(#paint13_linear_482_5689)"/>
<path d="M325.25 336.172C307.484 336.172 293.108 350.547 293.108 368.313C293.108 386.079 307.484 400.455 325.25 400.455C334.743 400.455 343.151 396.386 349.119 389.876C362.816 376.315 360.646 343.36 406.756 336.172H325.25Z" fill="url(#paint14_linear_482_5689)"/>
<g filter="url(#filter7_d_482_5689)">
<path d="M325.431 394.268C339.063 394.268 350.114 383.217 350.114 369.586C350.114 355.954 339.063 344.903 325.431 344.903C311.8 344.903 300.749 355.954 300.749 369.586C300.749 383.217 311.8 394.268 325.431 394.268Z" fill="url(#paint15_linear_482_5689)"/>
</g>
<g filter="url(#filter8_d_482_5689)">
<path d="M238.021 503.234C216.051 503.234 198.149 485.333 198.149 463.363C198.149 441.393 216.051 423.491 238.021 423.491H461.926C483.896 423.491 501.798 441.393 501.798 463.363C501.798 485.333 483.896 503.234 461.926 503.234H240.869C239.92 503.234 238.97 503.234 238.021 503.234Z" fill="url(#paint16_linear_482_5689)"/>
</g>
<path d="M462.63 495.817H238.726V431.67H462.63C480.396 431.67 494.772 446.045 494.772 463.811C494.772 481.442 480.396 495.817 462.63 495.817Z" fill="url(#paint17_linear_482_5689)"/>
<path d="M239.021 431.131C221.255 431.131 206.88 445.506 206.88 463.272C206.88 481.038 221.255 495.414 239.021 495.414C248.515 495.414 256.923 491.345 262.89 484.835C276.587 471.274 274.418 438.319 320.528 431.131H239.021Z" fill="url(#paint18_linear_482_5689)"/>
<g filter="url(#filter9_d_482_5689)">
<path d="M238.726 488.358C252.358 488.358 263.409 477.307 263.409 463.676C263.409 450.044 252.358 438.993 238.726 438.993C225.095 438.993 214.044 450.044 214.044 463.676C214.044 477.307 225.095 488.358 238.726 488.358Z" fill="url(#paint19_linear_482_5689)"/>
</g>
<path d="M112.875 373.898C168.974 373.898 214.452 328.42 214.452 272.32C214.452 216.22 168.974 170.742 112.875 170.742C56.7748 170.742 11.2969 216.22 11.2969 272.32C11.2969 328.42 56.7748 373.898 112.875 373.898Z" fill="url(#paint20_linear_482_5689)"/>
<path d="M112.872 361.962C162.38 361.962 202.515 321.828 202.515 272.319C202.515 222.81 162.38 182.676 112.872 182.676C63.3632 182.676 23.2285 222.81 23.2285 272.319C23.2285 321.828 63.3632 361.962 112.872 361.962Z" fill="url(#paint21_linear_482_5689)"/>
<path d="M117.484 133.582C192.074 136.023 251.882 197.187 251.882 272.455C251.882 347.587 192.21 408.886 117.484 411.327" stroke="#E8E9EC" stroke-width="2.57674" stroke-linecap="round" stroke-linejoin="round"/>
<path d="M117.62 138.466C114.907 138.466 112.873 136.16 112.873 133.448C112.873 130.735 115.179 128.701 117.891 128.701C120.603 128.701 122.638 131.007 122.638 133.719C122.638 136.431 120.332 138.601 117.62 138.466Z" fill="#E8E9EC"/>
<path d="M117.62 406.446C114.907 406.446 112.873 408.752 112.873 411.464C112.873 414.177 115.179 416.211 117.891 416.211C120.603 416.211 122.638 413.905 122.638 411.193C122.502 408.481 120.332 406.311 117.62 406.446Z" fill="#E8E9EC"/>
<path d="M275.751 176.844H238.727L234.388 181.184" stroke="#E8E9EC" stroke-width="1.28837" stroke-miterlimit="10" stroke-linecap="round" stroke-linejoin="round"/>
<path d="M188.955 81.0977H160.204V124.767" stroke="#E8E9EC" stroke-width="1.28837" stroke-miterlimit="10" stroke-linecap="round" stroke-linejoin="round"/>
<path d="M297.585 272.454H264.901" stroke="#E8E9EC" stroke-width="1.28837" stroke-miterlimit="10" stroke-linecap="round" stroke-linejoin="round"/>
<path d="M160.031 150.789C164.899 150.789 168.846 146.842 168.846 141.973C168.846 137.105 164.899 133.158 160.031 133.158C155.162 133.158 151.216 137.105 151.216 141.973C151.216 146.842 155.162 150.789 160.031 150.789Z" fill="url(#paint22_linear_482_5689)"/>
<path d="M225.708 199.356C230.576 199.356 234.523 195.409 234.523 190.541C234.523 185.672 230.576 181.726 225.708 181.726C220.839 181.726 216.893 185.672 216.893 190.541C216.893 195.409 220.839 199.356 225.708 199.356Z" fill="url(#paint23_linear_482_5689)"/>
<path d="M251.715 281.765C256.583 281.765 260.53 277.818 260.53 272.95C260.53 268.081 256.583 264.135 251.715 264.135C246.846 264.135 242.899 268.081 242.899 272.95C242.899 277.818 246.846 281.765 251.715 281.765Z" fill="url(#paint24_linear_482_5689)"/>
<path d="M275.751 368.065H238.727L234.388 363.726" stroke="#E8E9EC" stroke-width="1.28837" stroke-miterlimit="10" stroke-linecap="round" stroke-linejoin="round"/>
<path d="M188.955 463.812H160.204V420.143" stroke="#E8E9EC" stroke-width="1.28837" stroke-miterlimit="10" stroke-linecap="round" stroke-linejoin="round"/>
<path d="M168.846 402.836C168.846 397.953 164.913 394.021 160.031 394.021C155.149 394.021 151.216 397.953 151.216 402.836C151.216 407.718 155.149 411.651 160.031 411.651C164.913 411.786 168.846 407.718 168.846 402.836Z" fill="url(#paint25_linear_482_5689)"/>
<path d="M234.334 354.81C234.334 349.928 230.401 345.995 225.519 345.995C220.637 345.995 216.704 349.928 216.704 354.81C216.704 359.692 220.637 363.625 225.519 363.625C230.401 363.625 234.334 359.692 234.334 354.81Z" fill="url(#paint26_linear_482_5689)"/>
<path d="M286.892 89.1641V73.9749H289.388V89.1641H286.892ZM288.606 89.1641V86.8857H297.112V89.1641H288.606ZM288.606 82.5025V80.3109H296.375V82.5025H288.606ZM288.606 76.2533V73.9749H297.004V76.2533H288.606ZM303.992 89.3811C302.965 89.3811 302.032 89.1424 301.192 88.665C300.368 88.1876 299.717 87.5366 299.24 86.7121C298.762 85.8875 298.524 84.969 298.524 83.9563C298.524 82.9293 298.762 82.0107 299.24 81.2006C299.717 80.376 300.368 79.7251 301.192 79.2477C302.032 78.7703 302.965 78.5316 303.992 78.5316C304.802 78.5316 305.554 78.6908 306.248 79.009C306.957 79.3128 307.557 79.754 308.049 80.3326L306.487 81.9166C306.183 81.555 305.814 81.2874 305.38 81.1138C304.961 80.9257 304.498 80.8317 303.992 80.8317C303.399 80.8317 302.871 80.9691 302.408 81.244C301.959 81.5044 301.605 81.866 301.344 82.3289C301.098 82.7918 300.976 83.3343 300.976 83.9563C300.976 84.5639 301.098 85.1064 301.344 85.5838C301.605 86.0467 301.959 86.4155 302.408 86.6904C302.871 86.9508 303.399 87.081 303.992 87.081C304.498 87.081 304.961 86.9942 305.38 86.8206C305.814 86.6325 306.183 86.3577 306.487 85.996L308.049 87.58C307.557 88.1587 306.957 88.6071 306.248 88.9254C305.554 89.2292 304.802 89.3811 303.992 89.3811ZM314.332 89.3811C313.319 89.3811 312.401 89.1424 311.576 88.665C310.752 88.1731 310.093 87.515 309.602 86.6904C309.124 85.8658 308.886 84.9473 308.886 83.9346C308.886 82.922 309.124 82.0107 309.602 81.2006C310.093 80.3905 310.752 79.7468 311.576 79.2694C312.401 78.7776 313.319 78.5316 314.332 78.5316C315.359 78.5316 316.285 78.7703 317.109 79.2477C317.934 79.7251 318.585 80.376 319.062 81.2006C319.554 82.0107 319.8 82.922 319.8 83.9346C319.8 84.9473 319.554 85.8658 319.062 86.6904C318.585 87.515 317.934 88.1731 317.109 88.665C316.285 89.1424 315.359 89.3811 314.332 89.3811ZM314.332 87.081C314.925 87.081 315.446 86.9508 315.894 86.6904C316.357 86.4155 316.712 86.0394 316.958 85.5621C317.218 85.0847 317.348 84.5422 317.348 83.9346C317.348 83.3271 317.218 82.7918 316.958 82.3289C316.697 81.866 316.343 81.5044 315.894 81.244C315.446 80.9691 314.925 80.8317 314.332 80.8317C313.753 80.8317 313.233 80.9691 312.77 81.244C312.321 81.5044 311.967 81.866 311.706 82.3289C311.461 82.7918 311.338 83.3271 311.338 83.9346C311.338 84.5422 311.461 85.0847 311.706 85.5621C311.967 86.0394 312.321 86.4155 312.77 86.6904C313.233 86.9508 313.753 87.081 314.332 87.081ZM325.192 89.3811C324.613 89.3811 324.056 89.3087 323.521 89.1641C322.986 89.0049 322.494 88.7879 322.045 88.5131C321.597 88.2238 321.206 87.8766 320.874 87.4716L322.393 85.9526C322.754 86.3721 323.167 86.6904 323.629 86.9074C324.107 87.1099 324.642 87.2112 325.235 87.2112C325.77 87.2112 326.175 87.1316 326.45 86.9725C326.725 86.8134 326.863 86.5819 326.863 86.2781C326.863 85.9599 326.732 85.7139 326.472 85.5404C326.212 85.3668 325.872 85.2221 325.452 85.1064C325.047 84.9762 324.613 84.846 324.15 84.7158C323.702 84.5856 323.268 84.412 322.848 84.195C322.443 83.9636 322.111 83.6526 321.85 83.262C321.59 82.8714 321.46 82.3651 321.46 81.7431C321.46 81.0776 321.611 80.5062 321.915 80.0288C322.233 79.5515 322.675 79.1826 323.239 78.9222C323.817 78.6618 324.505 78.5316 325.3 78.5316C326.139 78.5316 326.877 78.6835 327.514 78.9873C328.164 79.2766 328.707 79.7178 329.141 80.3109L327.622 81.8299C327.318 81.4537 326.971 81.1717 326.58 80.9836C326.19 80.7955 325.741 80.7015 325.235 80.7015C324.758 80.7015 324.389 80.7738 324.129 80.9185C323.868 81.0632 323.738 81.2729 323.738 81.5478C323.738 81.8371 323.868 82.0613 324.129 82.2204C324.389 82.3796 324.722 82.517 325.127 82.6327C325.546 82.7484 325.98 82.8786 326.429 83.0233C326.891 83.1535 327.325 83.3415 327.731 83.5875C328.15 83.8189 328.49 84.1372 328.75 84.5422C329.011 84.9328 329.141 85.4463 329.141 86.0828C329.141 87.0954 328.787 87.8983 328.078 88.4914C327.369 89.0845 326.407 89.3811 325.192 89.3811ZM334.472 89.2726L330.024 78.7486H332.649L335.687 86.4734H334.928L338.139 78.7486H340.786L335.948 89.2726H334.472ZM331.369 93.5038L334.602 86.8423L335.948 89.2726L334.016 93.5038H331.369ZM345.365 89.3811C344.786 89.3811 344.229 89.3087 343.694 89.1641C343.159 89.0049 342.667 88.7879 342.219 88.5131C341.77 88.2238 341.38 87.8766 341.047 87.4716L342.566 85.9526C342.927 86.3721 343.34 86.6904 343.803 86.9074C344.28 87.1099 344.815 87.2112 345.408 87.2112C345.944 87.2112 346.349 87.1316 346.623 86.9725C346.898 86.8134 347.036 86.5819 347.036 86.2781C347.036 85.9599 346.906 85.7139 346.645 85.5404C346.385 85.3668 346.045 85.2221 345.625 85.1064C345.22 84.9762 344.786 84.846 344.323 84.7158C343.875 84.5856 343.441 84.412 343.021 84.195C342.616 83.9636 342.284 83.6526 342.023 83.262C341.763 82.8714 341.633 82.3651 341.633 81.7431C341.633 81.0776 341.785 80.5062 342.088 80.0288C342.407 79.5515 342.848 79.1826 343.412 78.9222C343.991 78.6618 344.678 78.5316 345.473 78.5316C346.312 78.5316 347.05 78.6835 347.687 78.9873C348.338 79.2766 348.88 79.7178 349.314 80.3109L347.795 81.8299C347.491 81.4537 347.144 81.1717 346.754 80.9836C346.363 80.7955 345.915 80.7015 345.408 80.7015C344.931 80.7015 344.562 80.7738 344.302 80.9185C344.041 81.0632 343.911 81.2729 343.911 81.5478C343.911 81.8371 344.041 82.0613 344.302 82.2204C344.562 82.3796 344.895 82.517 345.3 82.6327C345.719 82.7484 346.153 82.8786 346.602 83.0233C347.065 83.1535 347.499 83.3415 347.904 83.5875C348.323 83.8189 348.663 84.1372 348.924 84.5422C349.184 84.9328 349.314 85.4463 349.314 86.0828C349.314 87.0954 348.96 87.8983 348.251 88.4914C347.542 89.0845 346.58 89.3811 345.365 89.3811ZM352.866 89.1641V74.4089H355.253V89.1641H352.866ZM350.371 80.9185V78.7486H357.748V80.9185H350.371ZM364.025 89.3811C362.983 89.3811 362.043 89.1496 361.204 88.6867C360.379 88.2093 359.721 87.5583 359.229 86.7338C358.752 85.9092 358.513 84.9834 358.513 83.9563C358.513 82.9293 358.752 82.0107 359.229 81.2006C359.707 80.376 360.35 79.7251 361.16 79.2477C361.985 78.7703 362.896 78.5316 363.895 78.5316C364.864 78.5316 365.717 78.7559 366.455 79.2043C367.207 79.6527 367.793 80.2675 368.213 81.0487C368.647 81.8299 368.864 82.7195 368.864 83.7177C368.864 83.8912 368.849 84.0721 368.82 84.2601C368.806 84.4337 368.777 84.629 368.733 84.846H360.184V82.8931H367.497L366.607 83.6743C366.578 83.0378 366.455 82.5025 366.238 82.0685C366.021 81.6346 365.71 81.3018 365.305 81.0704C364.914 80.8389 364.43 80.7232 363.851 80.7232C363.244 80.7232 362.716 80.8534 362.267 81.1138C361.819 81.3742 361.471 81.7431 361.226 82.2204C360.98 82.6833 360.857 83.2403 360.857 83.8912C360.857 84.5422 360.987 85.1136 361.247 85.6055C361.508 86.0973 361.877 86.4806 362.354 86.7555C362.831 87.0159 363.381 87.1461 364.003 87.1461C364.538 87.1461 365.03 87.052 365.479 86.864C365.941 86.6759 366.332 86.4011 366.65 86.0394L368.169 87.58C367.663 88.1731 367.048 88.6216 366.325 88.9254C365.601 89.2292 364.835 89.3811 364.025 89.3811ZM370.777 89.1641V78.7486H373.164V89.1641H370.777ZM377.699 89.1641V82.9582C377.699 82.2638 377.482 81.7286 377.048 81.3525C376.614 80.9619 376.079 80.7666 375.442 80.7666C375.008 80.7666 374.618 80.8534 374.27 81.027C373.938 81.2006 373.67 81.4537 373.468 81.7865C373.265 82.1047 373.164 82.4953 373.164 82.9582L372.231 82.4374C372.231 81.6418 372.404 80.9547 372.752 80.376C373.099 79.7974 373.569 79.349 374.162 79.0307C374.755 78.698 375.42 78.5316 376.158 78.5316C376.896 78.5316 377.561 78.6908 378.155 79.009C378.748 79.3273 379.218 79.7757 379.565 80.3543C379.912 80.933 380.086 81.6273 380.086 82.4374V89.1641H377.699ZM384.621 89.1641V82.9582C384.621 82.2638 384.404 81.7286 383.97 81.3525C383.536 80.9619 383.001 80.7666 382.364 80.7666C381.945 80.7666 381.561 80.8534 381.214 81.027C380.867 81.2006 380.592 81.4537 380.39 81.7865C380.187 82.1047 380.086 82.4953 380.086 82.9582L378.74 82.4374C378.813 81.6418 379.044 80.9547 379.435 80.376C379.825 79.7974 380.324 79.349 380.932 79.0307C381.554 78.698 382.234 78.5316 382.972 78.5316C383.724 78.5316 384.404 78.6908 385.011 79.009C385.619 79.3273 386.104 79.7757 386.465 80.3543C386.827 80.933 387.008 81.6273 387.008 82.4374V89.1641H384.621ZM399.387 89.3811C398.592 89.3811 397.883 89.2147 397.261 88.882C396.639 88.5348 396.147 88.0647 395.785 87.4716C395.438 86.8785 395.265 86.2058 395.265 85.4536V82.4591C395.265 81.7069 395.445 81.0342 395.807 80.4411C396.169 79.848 396.661 79.3851 397.283 79.0524C397.905 78.7052 398.606 78.5316 399.387 78.5316C400.328 78.5316 401.174 78.7776 401.926 79.2694C402.693 79.7468 403.293 80.3977 403.727 81.2223C404.176 82.0324 404.4 82.951 404.4 83.978C404.4 84.9907 404.176 85.9092 403.727 86.7338C403.293 87.5439 402.693 88.1876 401.926 88.665C401.174 89.1424 400.328 89.3811 399.387 89.3811ZM398.997 87.1244C399.575 87.1244 400.082 86.9942 400.516 86.7338C400.964 86.4589 401.311 86.0828 401.557 85.6055C401.818 85.1281 401.948 84.5784 401.948 83.9563C401.948 83.3343 401.818 82.7846 401.557 82.3072C401.311 81.8299 400.964 81.461 400.516 81.2006C400.082 80.9257 399.575 80.7883 398.997 80.7883C398.418 80.7883 397.905 80.9257 397.456 81.2006C397.008 81.461 396.661 81.8299 396.415 82.3072C396.169 82.7846 396.046 83.3343 396.046 83.9563C396.046 84.5784 396.169 85.1281 396.415 85.6055C396.661 86.0828 397.008 86.4589 397.456 86.7338C397.905 86.9942 398.418 87.1244 398.997 87.1244ZM393.811 93.5038V78.7486H396.198V81.5478L395.785 84.0865L396.198 86.6036V93.5038H393.811ZM410.759 89.3811C409.819 89.3811 408.965 89.1424 408.199 88.665C407.447 88.1876 406.846 87.5439 406.398 86.7338C405.964 85.9092 405.747 84.9907 405.747 83.978C405.747 82.951 405.964 82.0324 406.398 81.2223C406.846 80.3977 407.447 79.7468 408.199 79.2694C408.965 78.7776 409.819 78.5316 410.759 78.5316C411.555 78.5316 412.256 78.7052 412.864 79.0524C413.486 79.3851 413.978 79.848 414.34 80.4411C414.701 81.0342 414.882 81.7069 414.882 82.4591V85.4536C414.882 86.2058 414.701 86.8785 414.34 87.4716C413.992 88.0647 413.508 88.5348 412.886 88.882C412.264 89.2147 411.555 89.3811 410.759 89.3811ZM411.15 87.1244C412.032 87.1244 412.741 86.8278 413.276 86.2347C413.826 85.6416 414.101 84.8822 414.101 83.9563C414.101 83.3343 413.978 82.7846 413.732 82.3072C413.486 81.8299 413.139 81.461 412.69 81.2006C412.256 80.9257 411.743 80.7883 411.15 80.7883C410.571 80.7883 410.058 80.9257 409.609 81.2006C409.175 81.461 408.828 81.8299 408.568 82.3072C408.322 82.7846 408.199 83.3343 408.199 83.9563C408.199 84.5784 408.322 85.1281 408.568 85.6055C408.828 86.0828 409.175 86.4589 409.609 86.7338C410.058 86.9942 410.571 87.1244 411.15 87.1244ZM413.949 89.1641V86.3649L414.361 83.8261L413.949 81.3091V78.7486H416.336V89.1641H413.949ZM418.985 89.1641V78.7486H421.372V89.1641H418.985ZM421.372 83.3705L420.547 82.9582C420.547 81.6418 420.836 80.5786 421.415 79.7685C422.008 78.9439 422.898 78.5316 424.084 78.5316C424.605 78.5316 425.075 78.6257 425.494 78.8137C425.914 79.0018 426.305 79.3056 426.666 79.7251L425.104 81.3308C424.916 81.1283 424.706 80.9836 424.475 80.8968C424.243 80.81 423.976 80.7666 423.672 80.7666C423.006 80.7666 422.457 80.9764 422.023 81.3959C421.589 81.8154 421.372 82.4736 421.372 83.3705ZM429.448 89.1641V74.4089H431.834V89.1641H429.448ZM426.952 80.9185V78.7486H434.33V80.9185H426.952ZM443.203 89.1641V83.1535C443.203 82.4591 442.979 81.8877 442.53 81.4393C442.096 80.9908 441.532 80.7666 440.838 80.7666C440.375 80.7666 439.963 80.8679 439.601 81.0704C439.239 81.2729 438.957 81.555 438.755 81.9166C438.552 82.2783 438.451 82.6906 438.451 83.1535L437.518 82.6327C437.518 81.8371 437.692 81.1355 438.039 80.5279C438.386 79.9059 438.863 79.4213 439.471 79.0741C440.093 78.7125 440.787 78.5316 441.554 78.5316C442.335 78.5316 443.03 78.7342 443.637 79.1392C444.245 79.5298 444.722 80.0433 445.069 80.6798C445.416 81.3018 445.59 81.9528 445.59 82.6327V89.1641H443.203ZM436.064 89.1641V78.7486H438.451V89.1641H436.064ZM452.854 89.3811C451.813 89.3811 450.873 89.1496 450.033 88.6867C449.209 88.2093 448.551 87.5583 448.059 86.7338C447.582 85.9092 447.343 84.9834 447.343 83.9563C447.343 82.9293 447.582 82.0107 448.059 81.2006C448.536 80.376 449.18 79.7251 449.99 79.2477C450.815 78.7703 451.726 78.5316 452.724 78.5316C453.693 78.5316 454.547 78.7559 455.285 79.2043C456.037 79.6527 456.623 80.2675 457.042 81.0487C457.476 81.8299 457.693 82.7195 457.693 83.7177C457.693 83.8912 457.679 84.0721 457.65 84.2601C457.635 84.4337 457.606 84.629 457.563 84.846H449.014V82.8931H456.326L455.436 83.6743C455.408 83.0378 455.285 82.5025 455.068 82.0685C454.851 81.6346 454.54 81.3018 454.135 81.0704C453.744 80.8389 453.259 80.7232 452.681 80.7232C452.073 80.7232 451.545 80.8534 451.097 81.1138C450.648 81.3742 450.301 81.7431 450.055 82.2204C449.809 82.6833 449.686 83.2403 449.686 83.8912C449.686 84.5422 449.816 85.1136 450.077 85.6055C450.337 86.0973 450.706 86.4806 451.184 86.7555C451.661 87.0159 452.211 87.1461 452.833 87.1461C453.368 87.1461 453.86 87.052 454.308 86.864C454.771 86.6759 455.162 86.4011 455.48 86.0394L456.999 87.58C456.493 88.1731 455.878 88.6216 455.154 88.9254C454.431 89.2292 453.664 89.3811 452.854 89.3811ZM459.607 89.1641V78.7486H461.993V89.1641H459.607ZM461.993 83.3705L461.169 82.9582C461.169 81.6418 461.458 80.5786 462.037 79.7685C462.63 78.9439 463.52 78.5316 464.706 78.5316C465.227 78.5316 465.697 78.6257 466.116 78.8137C466.536 79.0018 466.926 79.3056 467.288 79.7251L465.726 81.3308C465.538 81.1283 465.328 80.9836 465.096 80.8968C464.865 80.81 464.597 80.7666 464.294 80.7666C463.628 80.7666 463.078 80.9764 462.644 81.3959C462.21 81.8154 461.993 82.4736 461.993 83.3705ZM471.617 89.3811C471.038 89.3811 470.481 89.3087 469.946 89.1641C469.41 89.0049 468.919 88.7879 468.47 88.5131C468.022 88.2238 467.631 87.8766 467.298 87.4716L468.817 85.9526C469.179 86.3721 469.591 86.6904 470.054 86.9074C470.532 87.1099 471.067 87.2112 471.66 87.2112C472.195 87.2112 472.6 87.1316 472.875 86.9725C473.15 86.8134 473.287 86.5819 473.287 86.2781C473.287 85.9599 473.157 85.7139 472.897 85.5404C472.636 85.3668 472.296 85.2221 471.877 85.1064C471.472 84.9762 471.038 84.846 470.575 84.7158C470.127 84.5856 469.693 84.412 469.273 84.195C468.868 83.9636 468.535 83.6526 468.275 83.262C468.015 82.8714 467.884 82.3651 467.884 81.7431C467.884 81.0776 468.036 80.5062 468.34 80.0288C468.658 79.5515 469.099 79.1826 469.664 78.9222C470.242 78.6618 470.929 78.5316 471.725 78.5316C472.564 78.5316 473.302 78.6835 473.938 78.9873C474.589 79.2766 475.132 79.7178 475.566 80.3109L474.047 81.8299C473.743 81.4537 473.396 81.1717 473.005 80.9836C472.615 80.7955 472.166 80.7015 471.66 80.7015C471.183 80.7015 470.814 80.7738 470.553 80.9185C470.293 81.0632 470.163 81.2729 470.163 81.5478C470.163 81.8371 470.293 82.0613 470.553 82.2204C470.814 82.3796 471.146 82.517 471.551 82.6327C471.971 82.7484 472.405 82.8786 472.853 83.0233C473.316 83.1535 473.75 83.3415 474.155 83.5875C474.575 83.8189 474.915 84.1372 475.175 84.5422C475.436 84.9328 475.566 85.4463 475.566 86.0828C475.566 87.0954 475.211 87.8983 474.502 88.4914C473.794 89.0845 472.832 89.3811 471.617 89.3811Z" fill="#161A1B"/>
<path d="M232.573 88.9797C231.431 88.9797 230.382 88.6614 229.427 88.0249C228.487 87.374 227.735 86.4626 227.17 85.2909C226.606 84.1191 226.324 82.7377 226.324 81.1464C226.324 79.5552 226.599 78.1809 227.149 77.0236C227.713 75.8519 228.465 74.9478 229.405 74.3113C230.346 73.6748 231.387 73.3565 232.53 73.3565C233.687 73.3565 234.736 73.6748 235.676 74.3113C236.617 74.9478 237.362 75.8519 237.911 77.0236C238.476 78.1809 238.758 79.5624 238.758 81.1681C238.758 82.7593 238.476 84.1408 237.911 85.3126C237.362 86.4843 236.617 87.3884 235.676 88.0249C234.751 88.6614 233.716 88.9797 232.573 88.9797ZM232.53 86.6362C233.282 86.6362 233.933 86.4337 234.483 86.0286C235.033 85.6236 235.459 85.016 235.763 84.2059C236.081 83.3958 236.241 82.376 236.241 81.1464C236.241 79.9313 236.081 78.9187 235.763 78.1086C235.459 77.2985 235.025 76.6981 234.461 76.3076C233.912 75.9025 233.268 75.7 232.53 75.7C231.792 75.7 231.141 75.9025 230.577 76.3076C230.027 76.6981 229.601 77.2985 229.297 78.1086C228.993 78.9042 228.841 79.9168 228.841 81.1464C228.841 82.376 228.993 83.3958 229.297 84.2059C229.601 85.016 230.027 85.6236 230.577 86.0286C231.141 86.4337 231.792 86.6362 232.53 86.6362ZM243.255 88.7627V73.5735H245.707V88.7627H243.255ZM240.217 75.8085V73.5735H245.49V75.8085H240.217Z" fill="#161A1B"/>
<path d="M319.893 185.029C318.75 185.029 317.701 184.71 316.746 184.074C315.806 183.423 315.054 182.511 314.49 181.34C313.926 180.168 313.644 178.786 313.644 177.195C313.644 175.604 313.918 174.23 314.468 173.072C315.032 171.901 315.785 170.997 316.725 170.36C317.665 169.724 318.707 169.405 319.849 169.405C321.007 169.405 322.055 169.724 322.996 170.36C323.936 170.997 324.681 171.901 325.231 173.072C325.795 174.23 326.077 175.611 326.077 177.217C326.077 178.808 325.795 180.19 325.231 181.361C324.681 182.533 323.936 183.437 322.996 184.074C322.07 184.71 321.036 185.029 319.893 185.029ZM319.849 182.685C320.602 182.685 321.253 182.483 321.802 182.077C322.352 181.672 322.779 181.065 323.083 180.255C323.401 179.445 323.56 178.425 323.56 177.195C323.56 175.98 323.401 174.967 323.083 174.157C322.779 173.347 322.345 172.747 321.781 172.356C321.231 171.951 320.587 171.749 319.849 171.749C319.112 171.749 318.461 171.951 317.897 172.356C317.347 172.747 316.92 173.347 316.616 174.157C316.313 174.953 316.161 175.966 316.161 177.195C316.161 178.425 316.313 179.445 316.616 180.255C316.92 181.065 317.347 181.672 317.897 182.077C318.461 182.483 319.112 182.685 319.849 182.685ZM327.58 183.336L333.178 177.391C333.641 176.899 334.017 176.457 334.307 176.067C334.596 175.676 334.806 175.307 334.936 174.96C335.066 174.613 335.131 174.259 335.131 173.897C335.131 173.217 334.907 172.689 334.459 172.313C334.025 171.922 333.468 171.727 332.788 171.727C332.065 171.727 331.428 171.908 330.878 172.27C330.329 172.631 329.837 173.195 329.403 173.962L327.667 172.53C328.26 171.503 328.991 170.729 329.859 170.208C330.726 169.673 331.732 169.405 332.875 169.405C333.815 169.405 334.64 169.593 335.348 169.97C336.057 170.346 336.607 170.874 336.997 171.554C337.388 172.219 337.583 172.993 337.583 173.875C337.583 174.512 337.504 175.083 337.345 175.59C337.2 176.081 336.947 176.58 336.585 177.087C336.224 177.579 335.724 178.157 335.088 178.823L330.792 183.271L327.58 183.336ZM327.58 184.812V183.336L329.728 182.577H337.887V184.812H327.58Z" fill="#161A1B"/>
<path d="M339.538 279.987C338.396 279.987 337.347 279.669 336.392 279.033C335.452 278.382 334.699 277.47 334.135 276.299C333.571 275.127 333.289 273.745 333.289 272.154C333.289 270.563 333.564 269.189 334.114 268.031C334.678 266.86 335.43 265.956 336.37 265.319C337.311 264.683 338.352 264.364 339.495 264.364C340.652 264.364 341.701 264.683 342.641 265.319C343.582 265.956 344.327 266.86 344.876 268.031C345.44 269.189 345.723 270.57 345.723 272.176C345.723 273.767 345.44 275.149 344.876 276.32C344.327 277.492 343.582 278.396 342.641 279.033C341.715 279.669 340.681 279.987 339.538 279.987ZM339.495 277.644C340.247 277.644 340.898 277.441 341.448 277.036C341.998 276.631 342.424 276.024 342.728 275.214C343.046 274.404 343.205 273.384 343.205 272.154C343.205 270.939 343.046 269.926 342.728 269.116C342.424 268.306 341.99 267.706 341.426 267.315C340.876 266.91 340.233 266.708 339.495 266.708C338.757 266.708 338.106 266.91 337.542 267.315C336.992 267.706 336.566 268.306 336.262 269.116C335.958 269.912 335.806 270.925 335.806 272.154C335.806 273.384 335.958 274.404 336.262 275.214C336.566 276.024 336.992 276.631 337.542 277.036C338.106 277.441 338.757 277.644 339.495 277.644ZM351.956 279.987C350.943 279.987 350.025 279.807 349.2 279.445C348.39 279.069 347.703 278.526 347.139 277.818L348.831 276.125C349.135 276.588 349.562 276.957 350.112 277.232C350.661 277.507 351.262 277.644 351.913 277.644C352.535 277.644 353.07 277.528 353.518 277.297C353.967 277.065 354.314 276.74 354.56 276.32C354.82 275.901 354.95 275.416 354.95 274.867C354.95 274.288 354.82 273.796 354.56 273.391C354.314 272.986 353.952 272.675 353.475 272.458C353.012 272.227 352.448 272.111 351.782 272.111C351.522 272.111 351.254 272.133 350.98 272.176C350.705 272.205 350.459 272.255 350.242 272.328L351.348 270.896C351.652 270.78 351.97 270.686 352.303 270.614C352.65 270.527 352.983 270.483 353.301 270.483C354.082 270.483 354.784 270.671 355.406 271.048C356.043 271.424 356.542 271.952 356.903 272.632C357.279 273.297 357.468 274.085 357.468 274.997C357.468 275.98 357.236 276.848 356.773 277.601C356.31 278.353 355.667 278.939 354.842 279.358C354.017 279.778 353.055 279.987 351.956 279.987ZM350.242 272.328V270.852L354.299 266.122L357.294 266.057L353.063 270.917L350.242 272.328ZM347.898 266.816V264.581H357.294V266.057L355.146 266.816H347.898Z" fill="#161A1B"/>
<path d="M319.893 378.22C318.75 378.22 317.701 377.902 316.746 377.265C315.806 376.614 315.054 375.703 314.49 374.531C313.926 373.359 313.644 371.978 313.644 370.387C313.644 368.795 313.918 367.421 314.468 366.264C315.032 365.092 315.785 364.188 316.725 363.552C317.665 362.915 318.707 362.597 319.849 362.597C321.007 362.597 322.055 362.915 322.996 363.552C323.936 364.188 324.681 365.092 325.231 366.264C325.795 367.421 326.077 368.803 326.077 370.408C326.077 372 325.795 373.381 325.231 374.553C324.681 375.725 323.936 376.629 322.996 377.265C322.07 377.902 321.036 378.22 319.893 378.22ZM319.849 375.876C320.602 375.876 321.253 375.674 321.802 375.269C322.352 374.864 322.779 374.256 323.083 373.446C323.401 372.636 323.56 371.616 323.56 370.387C323.56 369.172 323.401 368.159 323.083 367.349C322.779 366.539 322.345 365.938 321.781 365.548C321.231 365.143 320.587 364.94 319.849 364.94C319.112 364.94 318.461 365.143 317.897 365.548C317.347 365.938 316.92 366.539 316.616 367.349C316.313 368.144 316.161 369.157 316.161 370.387C316.161 371.616 316.313 372.636 316.616 373.446C316.92 374.256 317.347 374.864 317.897 375.269C318.461 375.674 319.112 375.876 319.849 375.876ZM327.58 372.578L332.983 362.814H335.804L330.271 372.578H327.58ZM327.58 374.097V372.578L328.643 371.862H339.363V374.097H327.58ZM334.784 378.003V368.065H337.236V378.003H334.784Z" fill="#161A1B"/>
<path d="M231.483 472.087C230.34 472.087 229.291 471.769 228.336 471.132C227.396 470.481 226.644 469.57 226.08 468.398C225.515 467.227 225.233 465.845 225.233 464.254C225.233 462.663 225.508 461.288 226.058 460.131C226.622 458.959 227.374 458.055 228.315 457.419C229.255 456.782 230.296 456.464 231.439 456.464C232.597 456.464 233.645 456.782 234.586 457.419C235.526 458.055 236.271 458.959 236.821 460.131C237.385 461.288 237.667 462.67 237.667 464.276C237.667 465.867 237.385 467.248 236.821 468.42C236.271 469.592 235.526 470.496 234.586 471.132C233.66 471.769 232.625 472.087 231.483 472.087ZM231.439 469.744C232.191 469.744 232.842 469.541 233.392 469.136C233.942 468.731 234.369 468.123 234.672 467.313C234.991 466.503 235.15 465.483 235.15 464.254C235.15 463.039 234.991 462.026 234.672 461.216C234.369 460.406 233.935 459.806 233.37 459.415C232.821 459.01 232.177 458.807 231.439 458.807C230.702 458.807 230.051 459.01 229.486 459.415C228.937 459.806 228.51 460.406 228.206 461.216C227.902 462.012 227.75 463.024 227.75 464.254C227.75 465.483 227.902 466.503 228.206 467.313C228.51 468.123 228.937 468.731 229.486 469.136C230.051 469.541 230.702 469.744 231.439 469.744ZM243.922 472.087C242.866 472.087 241.926 471.906 241.101 471.545C240.277 471.169 239.582 470.626 239.018 469.917L240.711 468.225C241.014 468.688 241.441 469.057 241.991 469.331C242.555 469.606 243.184 469.744 243.879 469.744C244.515 469.744 245.072 469.628 245.549 469.396C246.027 469.165 246.403 468.832 246.678 468.398C246.953 467.964 247.09 467.451 247.09 466.858C247.09 466.236 246.953 465.722 246.678 465.317C246.417 464.898 246.063 464.587 245.615 464.384C245.181 464.167 244.71 464.059 244.204 464.059C243.625 464.059 243.105 464.124 242.642 464.254C242.193 464.384 241.752 464.615 241.318 464.948L241.383 463.386C241.615 463.082 241.882 462.836 242.186 462.648C242.49 462.446 242.844 462.294 243.249 462.192C243.654 462.091 244.132 462.041 244.681 462.041C245.752 462.041 246.649 462.265 247.372 462.713C248.11 463.162 248.667 463.762 249.043 464.514C249.419 465.252 249.607 466.077 249.607 466.988C249.607 467.972 249.361 468.847 248.869 469.613C248.392 470.38 247.727 470.988 246.873 471.436C246.02 471.87 245.036 472.087 243.922 472.087ZM241.318 464.948L239.951 463.581L240.624 456.681H242.902L242.121 463.863L241.318 464.948ZM241.058 458.916L240.624 456.681H248.761V458.916H241.058Z" fill="#161A1B"/>
<path d="M387.335 187.026C386.236 187.026 385.216 186.83 384.276 186.44C383.35 186.035 382.54 185.478 381.846 184.769C381.151 184.046 380.616 183.214 380.24 182.274C379.864 181.319 379.676 180.299 379.676 179.214C379.676 178.129 379.864 177.116 380.24 176.176C380.616 175.221 381.151 174.39 381.846 173.681C382.54 172.972 383.35 172.415 384.276 172.01C385.216 171.605 386.236 171.402 387.335 171.402C388.565 171.402 389.628 171.605 390.525 172.01C391.422 172.415 392.218 172.965 392.912 173.659L391.22 175.352C390.771 174.86 390.221 174.476 389.57 174.202C388.934 173.927 388.189 173.789 387.335 173.789C386.583 173.789 385.896 173.919 385.274 174.18C384.652 174.44 384.11 174.816 383.647 175.308C383.198 175.786 382.851 176.357 382.605 177.022C382.359 177.688 382.236 178.418 382.236 179.214C382.236 180.01 382.359 180.74 382.605 181.406C382.851 182.071 383.198 182.65 383.647 183.141C384.11 183.619 384.652 183.988 385.274 184.248C385.896 184.509 386.583 184.639 387.335 184.639C388.261 184.639 389.042 184.501 389.679 184.226C390.33 183.937 390.88 183.547 391.328 183.055L393.021 184.747C392.326 185.456 391.509 186.013 390.569 186.418C389.628 186.823 388.551 187.026 387.335 187.026ZM399.399 187.026C398.386 187.026 397.468 186.787 396.643 186.31C395.819 185.818 395.16 185.159 394.668 184.335C394.191 183.51 393.952 182.592 393.952 181.579C393.952 180.567 394.191 179.655 394.668 178.845C395.16 178.035 395.819 177.391 396.643 176.914C397.468 176.422 398.386 176.176 399.399 176.176C400.426 176.176 401.352 176.415 402.176 176.892C403.001 177.37 403.652 178.021 404.129 178.845C404.621 179.655 404.867 180.567 404.867 181.579C404.867 182.592 404.621 183.51 404.129 184.335C403.652 185.159 403.001 185.818 402.176 186.31C401.352 186.787 400.426 187.026 399.399 187.026ZM399.399 184.726C399.992 184.726 400.513 184.595 400.961 184.335C401.424 184.06 401.778 183.684 402.024 183.207C402.285 182.729 402.415 182.187 402.415 181.579C402.415 180.972 402.285 180.436 402.024 179.973C401.764 179.511 401.41 179.149 400.961 178.889C400.513 178.614 399.992 178.476 399.399 178.476C398.82 178.476 398.299 178.614 397.837 178.889C397.388 179.149 397.034 179.511 396.773 179.973C396.527 180.436 396.404 180.972 396.404 181.579C396.404 182.187 396.527 182.729 396.773 183.207C397.034 183.684 397.388 184.06 397.837 184.335C398.299 184.595 398.82 184.726 399.399 184.726ZM406.852 186.809V176.393H409.239V186.809H406.852ZM409.239 181.015L408.414 180.603C408.414 179.286 408.704 178.223 409.282 177.413C409.875 176.588 410.765 176.176 411.951 176.176C412.472 176.176 412.942 176.27 413.362 176.458C413.781 176.646 414.172 176.95 414.533 177.37L412.971 178.975C412.783 178.773 412.573 178.628 412.342 178.541C412.11 178.455 411.843 178.411 411.539 178.411C410.873 178.411 410.324 178.621 409.89 179.04C409.456 179.46 409.239 180.118 409.239 181.015ZM421.265 187.026C420.469 187.026 419.76 186.859 419.138 186.527C418.516 186.179 418.024 185.709 417.663 185.116C417.316 184.523 417.142 183.85 417.142 183.098V180.104C417.142 179.351 417.323 178.679 417.685 178.086C418.046 177.493 418.538 177.03 419.16 176.697C419.782 176.35 420.484 176.176 421.265 176.176C422.205 176.176 423.051 176.422 423.804 176.914C424.57 177.391 425.171 178.042 425.605 178.867C426.053 179.677 426.277 180.595 426.277 181.623C426.277 182.635 426.053 183.554 425.605 184.378C425.171 185.188 424.57 185.832 423.804 186.31C423.051 186.787 422.205 187.026 421.265 187.026ZM420.874 184.769C421.453 184.769 421.959 184.639 422.393 184.378C422.842 184.103 423.189 183.727 423.435 183.25C423.695 182.773 423.825 182.223 423.825 181.601C423.825 180.979 423.695 180.429 423.435 179.952C423.189 179.474 422.842 179.106 422.393 178.845C421.959 178.57 421.453 178.433 420.874 178.433C420.296 178.433 419.782 178.57 419.334 178.845C418.885 179.106 418.538 179.474 418.292 179.952C418.046 180.429 417.923 180.979 417.923 181.601C417.923 182.223 418.046 182.773 418.292 183.25C418.538 183.727 418.885 184.103 419.334 184.378C419.782 184.639 420.296 184.769 420.874 184.769ZM415.688 191.148V176.393H418.075V179.192L417.663 181.731L418.075 184.248V191.148H415.688ZM433.049 187.026C432.036 187.026 431.118 186.787 430.293 186.31C429.469 185.818 428.81 185.159 428.319 184.335C427.841 183.51 427.603 182.592 427.603 181.579C427.603 180.567 427.841 179.655 428.319 178.845C428.81 178.035 429.469 177.391 430.293 176.914C431.118 176.422 432.036 176.176 433.049 176.176C434.076 176.176 435.002 176.415 435.826 176.892C436.651 177.37 437.302 178.021 437.779 178.845C438.271 179.655 438.517 180.567 438.517 181.579C438.517 182.592 438.271 183.51 437.779 184.335C437.302 185.159 436.651 185.818 435.826 186.31C435.002 186.787 434.076 187.026 433.049 187.026ZM433.049 184.726C433.642 184.726 434.163 184.595 434.611 184.335C435.074 184.06 435.429 183.684 435.675 183.207C435.935 182.729 436.065 182.187 436.065 181.579C436.065 180.972 435.935 180.436 435.675 179.973C435.414 179.511 435.06 179.149 434.611 178.889C434.163 178.614 433.642 178.476 433.049 178.476C432.47 178.476 431.95 178.614 431.487 178.889C431.038 179.149 430.684 179.511 430.423 179.973C430.178 180.436 430.055 180.972 430.055 181.579C430.055 182.187 430.178 182.729 430.423 183.207C430.684 183.684 431.038 184.06 431.487 184.335C431.95 184.595 432.47 184.726 433.049 184.726ZM440.502 186.809V176.393H442.889V186.809H440.502ZM442.889 181.015L442.064 180.603C442.064 179.286 442.354 178.223 442.932 177.413C443.525 176.588 444.415 176.176 445.601 176.176C446.122 176.176 446.592 176.27 447.012 176.458C447.431 176.646 447.822 176.95 448.183 177.37L446.621 178.975C446.433 178.773 446.223 178.628 445.992 178.541C445.76 178.455 445.493 178.411 445.189 178.411C444.524 178.411 443.974 178.621 443.54 179.04C443.106 179.46 442.889 180.118 442.889 181.015ZM453.382 187.026C452.442 187.026 451.588 186.787 450.822 186.31C450.069 185.832 449.469 185.188 449.021 184.378C448.587 183.554 448.37 182.635 448.37 181.623C448.37 180.595 448.587 179.677 449.021 178.867C449.469 178.042 450.069 177.391 450.822 176.914C451.588 176.422 452.442 176.176 453.382 176.176C454.178 176.176 454.879 176.35 455.487 176.697C456.109 177.03 456.601 177.493 456.962 178.086C457.324 178.679 457.505 179.351 457.505 180.104V183.098C457.505 183.85 457.324 184.523 456.962 185.116C456.615 185.709 456.131 186.179 455.508 186.527C454.886 186.859 454.178 187.026 453.382 187.026ZM453.773 184.769C454.655 184.769 455.364 184.472 455.899 183.879C456.449 183.286 456.724 182.527 456.724 181.601C456.724 180.979 456.601 180.429 456.355 179.952C456.109 179.474 455.762 179.106 455.313 178.845C454.879 178.57 454.366 178.433 453.773 178.433C453.194 178.433 452.68 178.57 452.232 178.845C451.798 179.106 451.451 179.474 451.19 179.952C450.945 180.429 450.822 180.979 450.822 181.601C450.822 182.223 450.945 182.773 451.19 183.25C451.451 183.727 451.798 184.103 452.232 184.378C452.68 184.639 453.194 184.769 453.773 184.769ZM456.572 186.809V184.009L456.984 181.471L456.572 178.954V176.393H458.959V186.809H456.572ZM463.192 186.809V172.053H465.578V186.809H463.192ZM460.696 178.563V176.393H468.074V178.563H460.696ZM474.35 187.026C473.309 187.026 472.369 186.794 471.53 186.331C470.705 185.854 470.047 185.203 469.555 184.378C469.078 183.554 468.839 182.628 468.839 181.601C468.839 180.574 469.078 179.655 469.555 178.845C470.032 178.021 470.676 177.37 471.486 176.892C472.311 176.415 473.222 176.176 474.22 176.176C475.189 176.176 476.043 176.4 476.781 176.849C477.533 177.297 478.119 177.912 478.538 178.693C478.972 179.474 479.189 180.364 479.189 181.362C479.189 181.536 479.175 181.717 479.146 181.905C479.131 182.078 479.102 182.274 479.059 182.491H470.51V180.538H477.822L476.933 181.319C476.904 180.682 476.781 180.147 476.564 179.713C476.347 179.279 476.036 178.946 475.631 178.715C475.24 178.483 474.755 178.368 474.177 178.368C473.569 178.368 473.041 178.498 472.593 178.758C472.144 179.019 471.797 179.388 471.551 179.865C471.305 180.328 471.182 180.885 471.182 181.536C471.182 182.187 471.313 182.758 471.573 183.25C471.833 183.742 472.202 184.125 472.68 184.4C473.157 184.66 473.707 184.791 474.329 184.791C474.864 184.791 475.356 184.697 475.804 184.509C476.267 184.32 476.658 184.046 476.976 183.684L478.495 185.225C477.989 185.818 477.374 186.266 476.65 186.57C475.927 186.874 475.16 187.026 474.35 187.026ZM484.509 187.026C483.931 187.026 483.374 186.953 482.839 186.809C482.303 186.649 481.811 186.432 481.363 186.158C480.915 185.868 480.524 185.521 480.191 185.116L481.71 183.597C482.072 184.017 482.484 184.335 482.947 184.552C483.424 184.754 483.96 184.856 484.553 184.856C485.088 184.856 485.493 184.776 485.768 184.617C486.043 184.458 486.18 184.226 486.18 183.923C486.18 183.604 486.05 183.358 485.79 183.185C485.529 183.011 485.189 182.867 484.77 182.751C484.365 182.621 483.931 182.491 483.468 182.36C483.019 182.23 482.585 182.057 482.166 181.84C481.761 181.608 481.428 181.297 481.168 180.907C480.907 180.516 480.777 180.01 480.777 179.388C480.777 178.722 480.929 178.151 481.233 177.673C481.551 177.196 481.992 176.827 482.556 176.567C483.135 176.306 483.822 176.176 484.618 176.176C485.457 176.176 486.195 176.328 486.831 176.632C487.482 176.921 488.025 177.362 488.459 177.955L486.94 179.474C486.636 179.098 486.289 178.816 485.898 178.628C485.507 178.44 485.059 178.346 484.553 178.346C484.075 178.346 483.706 178.418 483.446 178.563C483.186 178.708 483.056 178.917 483.056 179.192C483.056 179.482 483.186 179.706 483.446 179.865C483.706 180.024 484.039 180.162 484.444 180.277C484.864 180.393 485.298 180.523 485.746 180.668C486.209 180.798 486.643 180.986 487.048 181.232C487.468 181.463 487.808 181.782 488.068 182.187C488.328 182.577 488.459 183.091 488.459 183.727C488.459 184.74 488.104 185.543 487.395 186.136C486.686 186.729 485.724 187.026 484.509 187.026Z" fill="#161A1B"/>
<path d="M405.869 281.958C404.668 281.958 403.648 281.741 402.809 281.307C401.97 280.873 401.218 280.237 400.552 279.398L402.245 277.705C402.664 278.313 403.164 278.79 403.742 279.137C404.321 279.47 405.059 279.636 405.955 279.636C406.794 279.636 407.46 279.463 407.952 279.116C408.458 278.768 408.711 278.291 408.711 277.684C408.711 277.177 408.581 276.765 408.321 276.447C408.06 276.128 407.713 275.868 407.279 275.666C406.86 275.449 406.389 275.26 405.869 275.101C405.362 274.928 404.849 274.74 404.328 274.537C403.822 274.32 403.352 274.053 402.918 273.734C402.498 273.416 402.158 273.004 401.898 272.498C401.637 271.991 401.507 271.347 401.507 270.566C401.507 269.669 401.724 268.91 402.158 268.288C402.607 267.651 403.207 267.167 403.959 266.834C404.711 266.501 405.55 266.335 406.476 266.335C407.474 266.335 408.364 266.53 409.145 266.921C409.941 267.311 410.585 267.811 411.076 268.418L409.384 270.111C408.95 269.619 408.494 269.257 408.017 269.026C407.554 268.78 407.019 268.657 406.411 268.657C405.659 268.657 405.066 268.809 404.632 269.112C404.212 269.416 404.003 269.843 404.003 270.393C404.003 270.856 404.133 271.232 404.393 271.521C404.654 271.796 404.993 272.035 405.413 272.237C405.847 272.425 406.317 272.606 406.823 272.78C407.344 272.953 407.858 273.148 408.364 273.365C408.885 273.582 409.355 273.865 409.774 274.212C410.208 274.544 410.556 274.978 410.816 275.514C411.076 276.049 411.207 276.722 411.207 277.532C411.207 278.891 410.722 279.969 409.753 280.765C408.798 281.56 407.503 281.958 405.869 281.958ZM414.953 281.741V266.986H417.34V281.741H414.953ZM412.458 273.496V271.326H419.835V273.496H412.458ZM425.844 281.958C424.962 281.958 424.174 281.763 423.479 281.372C422.799 280.982 422.264 280.447 421.874 279.767C421.497 279.072 421.309 278.277 421.309 277.38V271.326H423.696V277.271C423.696 277.778 423.776 278.212 423.935 278.573C424.109 278.92 424.354 279.188 424.673 279.376C425.005 279.564 425.396 279.658 425.844 279.658C426.539 279.658 427.067 279.456 427.429 279.051C427.805 278.631 427.993 278.038 427.993 277.271V271.326H430.38V277.38C430.38 278.291 430.184 279.094 429.794 279.788C429.418 280.468 428.89 281.003 428.21 281.394C427.53 281.77 426.741 281.958 425.844 281.958ZM437.141 281.958C436.201 281.958 435.347 281.72 434.58 281.242C433.828 280.765 433.228 280.121 432.779 279.311C432.345 278.486 432.129 277.568 432.129 276.555C432.129 275.528 432.345 274.61 432.779 273.799C433.228 272.975 433.828 272.324 434.58 271.847C435.347 271.355 436.201 271.109 437.141 271.109C437.937 271.109 438.638 271.282 439.246 271.63C439.868 271.962 440.36 272.425 440.721 273.018C441.083 273.611 441.264 274.284 441.264 275.036V278.031C441.264 278.783 441.083 279.456 440.721 280.049C440.374 280.642 439.889 281.112 439.267 281.459C438.645 281.792 437.937 281.958 437.141 281.958ZM437.532 279.702C438.125 279.702 438.638 279.571 439.072 279.311C439.521 279.036 439.868 278.66 440.114 278.183C440.36 277.705 440.483 277.156 440.483 276.533C440.483 275.911 440.36 275.362 440.114 274.884C439.868 274.407 439.521 274.038 439.072 273.778C438.638 273.503 438.132 273.365 437.553 273.365C436.96 273.365 436.439 273.503 435.991 273.778C435.557 274.038 435.21 274.407 434.949 274.884C434.703 275.362 434.58 275.911 434.58 276.533C434.58 277.156 434.703 277.705 434.949 278.183C435.21 278.66 435.557 279.036 435.991 279.311C436.439 279.571 436.953 279.702 437.532 279.702ZM442.718 281.741H440.331V278.942L440.743 276.403L440.331 273.886V266.118H442.718V281.741ZM450.205 281.958C449.164 281.958 448.224 281.727 447.384 281.264C446.56 280.786 445.902 280.135 445.41 279.311C444.933 278.486 444.694 277.561 444.694 276.533C444.694 275.506 444.933 274.588 445.41 273.778C445.887 272.953 446.531 272.302 447.341 271.825C448.166 271.347 449.077 271.109 450.075 271.109C451.044 271.109 451.898 271.333 452.636 271.781C453.388 272.23 453.974 272.845 454.393 273.626C454.827 274.407 455.044 275.297 455.044 276.295C455.044 276.468 455.03 276.649 455.001 276.837C454.986 277.011 454.957 277.206 454.914 277.423H446.365V275.47H453.677L452.787 276.251C452.759 275.615 452.636 275.08 452.419 274.646C452.202 274.212 451.891 273.879 451.486 273.648C451.095 273.416 450.61 273.3 450.032 273.3C449.424 273.3 448.896 273.431 448.448 273.691C447.999 273.951 447.652 274.32 447.406 274.798C447.16 275.26 447.037 275.817 447.037 276.468C447.037 277.119 447.167 277.691 447.428 278.183C447.688 278.674 448.057 279.058 448.535 279.333C449.012 279.593 449.562 279.723 450.184 279.723C450.719 279.723 451.211 279.629 451.659 279.441C452.122 279.253 452.513 278.978 452.831 278.617L454.35 280.157C453.844 280.75 453.229 281.199 452.505 281.503C451.782 281.806 451.015 281.958 450.205 281.958ZM464.096 281.741V275.731C464.096 275.036 463.872 274.465 463.424 274.016C462.99 273.568 462.426 273.344 461.731 273.344C461.268 273.344 460.856 273.445 460.494 273.648C460.133 273.85 459.851 274.132 459.648 274.494C459.446 274.855 459.344 275.268 459.344 275.731L458.411 275.21C458.411 274.414 458.585 273.713 458.932 273.105C459.279 272.483 459.757 271.998 460.364 271.651C460.986 271.29 461.681 271.109 462.447 271.109C463.229 271.109 463.923 271.311 464.53 271.716C465.138 272.107 465.615 272.62 465.963 273.257C466.31 273.879 466.483 274.53 466.483 275.21V281.741H464.096ZM456.958 281.741V271.326H459.344V281.741H456.958ZM470.366 281.741V266.986H472.753V281.741H470.366ZM467.87 273.496V271.326H475.248V273.496H467.87ZM480.177 281.958C479.599 281.958 479.042 281.886 478.506 281.741C477.971 281.582 477.479 281.365 477.031 281.09C476.582 280.801 476.192 280.454 475.859 280.049L477.378 278.53C477.74 278.949 478.152 279.268 478.615 279.485C479.092 279.687 479.627 279.788 480.221 279.788C480.756 279.788 481.161 279.709 481.436 279.55C481.711 279.391 481.848 279.159 481.848 278.855C481.848 278.537 481.718 278.291 481.457 278.118C481.197 277.944 480.857 277.799 480.438 277.684C480.033 277.553 479.599 277.423 479.136 277.293C478.687 277.163 478.253 276.989 477.834 276.772C477.429 276.541 477.096 276.23 476.836 275.839C476.575 275.449 476.445 274.942 476.445 274.32C476.445 273.655 476.597 273.083 476.901 272.606C477.219 272.129 477.66 271.76 478.224 271.499C478.803 271.239 479.49 271.109 480.286 271.109C481.125 271.109 481.862 271.261 482.499 271.564C483.15 271.854 483.692 272.295 484.126 272.888L482.607 274.407C482.304 274.031 481.956 273.749 481.566 273.561C481.175 273.373 480.727 273.279 480.221 273.279C479.743 273.279 479.374 273.351 479.114 273.496C478.854 273.64 478.723 273.85 478.723 274.125C478.723 274.414 478.854 274.638 479.114 274.798C479.374 274.957 479.707 275.094 480.112 275.21C480.532 275.326 480.966 275.456 481.414 275.6C481.877 275.731 482.311 275.919 482.716 276.165C483.135 276.396 483.475 276.714 483.736 277.119C483.996 277.51 484.126 278.023 484.126 278.66C484.126 279.673 483.772 280.475 483.063 281.069C482.354 281.662 481.392 281.958 480.177 281.958Z" fill="#161A1B"/>
<path d="M387.882 376.036C386.783 376.036 385.763 375.841 384.823 375.45C383.897 375.045 383.087 374.488 382.393 373.78C381.698 373.056 381.163 372.225 380.787 371.284C380.411 370.33 380.223 369.31 380.223 368.225C380.223 367.14 380.411 366.127 380.787 365.187C381.163 364.232 381.698 363.4 382.393 362.692C383.087 361.983 383.897 361.426 384.823 361.021C385.763 360.616 386.783 360.413 387.882 360.413C389.112 360.413 390.175 360.616 391.072 361.021C391.969 361.426 392.765 361.975 393.459 362.67L391.766 364.362C391.318 363.871 390.768 363.487 390.117 363.212C389.481 362.937 388.736 362.8 387.882 362.8C387.13 362.8 386.443 362.93 385.821 363.191C385.199 363.451 384.656 363.827 384.194 364.319C383.745 364.796 383.398 365.368 383.152 366.033C382.906 366.699 382.783 367.429 382.783 368.225C382.783 369.02 382.906 369.751 383.152 370.416C383.398 371.082 383.745 371.66 384.194 372.152C384.656 372.63 385.199 372.998 385.821 373.259C386.443 373.519 387.13 373.649 387.882 373.649C388.808 373.649 389.589 373.512 390.226 373.237C390.877 372.948 391.426 372.557 391.875 372.065L393.567 373.758C392.873 374.467 392.056 375.024 391.115 375.429C390.175 375.834 389.097 376.036 387.882 376.036ZM399.946 376.036C398.933 376.036 398.015 375.798 397.19 375.32C396.365 374.828 395.707 374.17 395.215 373.346C394.738 372.521 394.499 371.603 394.499 370.59C394.499 369.577 394.738 368.666 395.215 367.856C395.707 367.046 396.365 366.402 397.19 365.925C398.015 365.433 398.933 365.187 399.946 365.187C400.973 365.187 401.899 365.426 402.723 365.903C403.548 366.38 404.199 367.031 404.676 367.856C405.168 368.666 405.414 369.577 405.414 370.59C405.414 371.603 405.168 372.521 404.676 373.346C404.199 374.17 403.548 374.828 402.723 375.32C401.899 375.798 400.973 376.036 399.946 376.036ZM399.946 373.736C400.539 373.736 401.06 373.606 401.508 373.346C401.971 373.071 402.325 372.695 402.571 372.217C402.832 371.74 402.962 371.197 402.962 370.59C402.962 369.982 402.832 369.447 402.571 368.984C402.311 368.521 401.956 368.16 401.508 367.899C401.06 367.624 400.539 367.487 399.946 367.487C399.367 367.487 398.846 367.624 398.383 367.899C397.935 368.16 397.581 368.521 397.32 368.984C397.074 369.447 396.951 369.982 396.951 370.59C396.951 371.197 397.074 371.74 397.32 372.217C397.581 372.695 397.935 373.071 398.383 373.346C398.846 373.606 399.367 373.736 399.946 373.736ZM407.399 375.819V360.196H409.786V375.819H407.399ZM412.442 375.819V360.196H414.829V375.819H412.442ZM422.324 376.036C421.283 376.036 420.342 375.805 419.503 375.342C418.679 374.865 418.021 374.214 417.529 373.389C417.051 372.565 416.813 371.639 416.813 370.612C416.813 369.585 417.051 368.666 417.529 367.856C418.006 367.031 418.65 366.38 419.46 365.903C420.284 365.426 421.196 365.187 422.194 365.187C423.163 365.187 424.017 365.411 424.754 365.86C425.507 366.308 426.093 366.923 426.512 367.704C426.946 368.485 427.163 369.375 427.163 370.373C427.163 370.547 427.149 370.727 427.12 370.915C427.105 371.089 427.076 371.284 427.033 371.501H418.483V369.548H425.796L424.906 370.33C424.877 369.693 424.754 369.158 424.537 368.724C424.32 368.29 424.009 367.957 423.604 367.726C423.214 367.494 422.729 367.378 422.151 367.378C421.543 367.378 421.015 367.509 420.567 367.769C420.118 368.029 419.771 368.398 419.525 368.876C419.279 369.339 419.156 369.896 419.156 370.547C419.156 371.197 419.286 371.769 419.547 372.261C419.807 372.753 420.176 373.136 420.653 373.411C421.131 373.671 421.68 373.801 422.302 373.801C422.838 373.801 423.33 373.707 423.778 373.519C424.241 373.331 424.631 373.056 424.95 372.695L426.469 374.235C425.962 374.828 425.348 375.277 424.624 375.581C423.901 375.884 423.134 376.036 422.324 376.036ZM433.416 380.376C432.317 380.376 431.355 380.174 430.53 379.769C429.706 379.378 429.04 378.821 428.534 378.098L430.096 376.535C430.516 377.056 430.993 377.447 431.528 377.707C432.064 377.968 432.707 378.098 433.46 378.098C434.4 378.098 435.145 377.852 435.695 377.36C436.244 376.883 436.519 376.224 436.519 375.385V372.825L436.931 370.525L436.519 368.203V365.404H438.906V375.385C438.906 376.384 438.675 377.251 438.212 377.989C437.749 378.741 437.105 379.327 436.28 379.747C435.456 380.166 434.501 380.376 433.416 380.376ZM433.308 375.602C432.382 375.602 431.543 375.378 430.791 374.93C430.053 374.467 429.467 373.838 429.033 373.042C428.614 372.246 428.404 371.357 428.404 370.373C428.404 369.389 428.614 368.507 429.033 367.726C429.467 366.945 430.053 366.33 430.791 365.881C431.543 365.418 432.382 365.187 433.308 365.187C434.132 365.187 434.856 365.353 435.478 365.686C436.1 366.019 436.584 366.482 436.931 367.075C437.279 367.653 437.452 368.333 437.452 369.114V371.675C437.452 372.442 437.271 373.121 436.91 373.715C436.563 374.308 436.078 374.771 435.456 375.103C434.834 375.436 434.118 375.602 433.308 375.602ZM433.785 373.346C434.364 373.346 434.87 373.223 435.304 372.977C435.738 372.731 436.071 372.391 436.302 371.957C436.548 371.508 436.671 370.988 436.671 370.395C436.671 369.802 436.548 369.288 436.302 368.854C436.071 368.406 435.738 368.058 435.304 367.812C434.87 367.567 434.364 367.444 433.785 367.444C433.206 367.444 432.693 367.567 432.244 367.812C431.81 368.058 431.471 368.406 431.225 368.854C430.979 369.288 430.856 369.802 430.856 370.395C430.856 370.973 430.979 371.487 431.225 371.935C431.471 372.384 431.81 372.731 432.244 372.977C432.693 373.223 433.206 373.346 433.785 373.346ZM446.396 376.036C445.355 376.036 444.414 375.805 443.575 375.342C442.751 374.865 442.093 374.214 441.601 373.389C441.124 372.565 440.885 371.639 440.885 370.612C440.885 369.585 441.124 368.666 441.601 367.856C442.078 367.031 442.722 366.38 443.532 365.903C444.357 365.426 445.268 365.187 446.266 365.187C447.235 365.187 448.089 365.411 448.827 365.86C449.579 366.308 450.165 366.923 450.584 367.704C451.018 368.485 451.235 369.375 451.235 370.373C451.235 370.547 451.221 370.727 451.192 370.915C451.177 371.089 451.148 371.284 451.105 371.501H442.556V369.548H449.868L448.978 370.33C448.95 369.693 448.827 369.158 448.61 368.724C448.393 368.29 448.082 367.957 447.677 367.726C447.286 367.494 446.801 367.378 446.223 367.378C445.615 367.378 445.087 367.509 444.639 367.769C444.19 368.029 443.843 368.398 443.597 368.876C443.351 369.339 443.228 369.896 443.228 370.547C443.228 371.197 443.358 371.769 443.619 372.261C443.879 372.753 444.248 373.136 444.726 373.411C445.203 373.671 445.753 373.801 446.375 373.801C446.91 373.801 447.402 373.707 447.85 373.519C448.313 373.331 448.704 373.056 449.022 372.695L450.541 374.235C450.034 374.828 449.42 375.277 448.696 375.581C447.973 375.884 447.206 376.036 446.396 376.036ZM456.555 376.036C455.977 376.036 455.42 375.964 454.884 375.819C454.349 375.66 453.857 375.443 453.409 375.168C452.961 374.879 452.57 374.532 452.237 374.127L453.756 372.608C454.118 373.027 454.53 373.346 454.993 373.563C455.47 373.765 456.006 373.866 456.599 373.866C457.134 373.866 457.539 373.787 457.814 373.628C458.089 373.469 458.226 373.237 458.226 372.933C458.226 372.615 458.096 372.369 457.836 372.196C457.575 372.022 457.235 371.877 456.816 371.762C456.411 371.631 455.977 371.501 455.514 371.371C455.065 371.241 454.631 371.067 454.212 370.85C453.807 370.619 453.474 370.308 453.214 369.917C452.953 369.527 452.823 369.02 452.823 368.398C452.823 367.733 452.975 367.161 453.279 366.684C453.597 366.207 454.038 365.838 454.602 365.577C455.181 365.317 455.868 365.187 456.664 365.187C457.503 365.187 458.241 365.339 458.877 365.643C459.528 365.932 460.07 366.373 460.504 366.966L458.986 368.485C458.682 368.109 458.335 367.827 457.944 367.639C457.553 367.451 457.105 367.357 456.599 367.357C456.121 367.357 455.752 367.429 455.492 367.574C455.232 367.718 455.101 367.928 455.101 368.203C455.101 368.492 455.232 368.717 455.492 368.876C455.752 369.035 456.085 369.172 456.49 369.288C456.91 369.404 457.344 369.534 457.792 369.679C458.255 369.809 458.689 369.997 459.094 370.243C459.514 370.474 459.854 370.792 460.114 371.197C460.374 371.588 460.504 372.102 460.504 372.738C460.504 373.751 460.15 374.554 459.441 375.147C458.732 375.74 457.77 376.036 456.555 376.036Z" fill="#161A1B"/>
<path d="M299.523 472.087C298.381 472.087 297.354 471.827 296.442 471.306C295.531 470.785 294.808 470.076 294.272 469.179C293.752 468.268 293.491 467.241 293.491 466.098V456.681H295.987V466.077C295.987 466.814 296.138 467.458 296.442 468.008C296.76 468.543 297.187 468.962 297.722 469.266C298.258 469.556 298.858 469.7 299.523 469.7C300.203 469.7 300.804 469.556 301.324 469.266C301.845 468.962 302.257 468.543 302.561 468.008C302.865 467.458 303.017 466.822 303.017 466.098V456.681H305.512V466.12C305.512 467.263 305.252 468.283 304.731 469.179C304.21 470.076 303.502 470.785 302.605 471.306C301.708 471.827 300.681 472.087 299.523 472.087ZM315.46 471.87V465.86C315.46 465.165 315.235 464.594 314.787 464.145C314.353 463.697 313.789 463.473 313.095 463.473C312.632 463.473 312.219 463.574 311.858 463.776C311.496 463.979 311.214 464.261 311.011 464.623C310.809 464.984 310.708 465.397 310.708 465.86L309.775 465.339C309.775 464.543 309.948 463.842 310.295 463.234C310.643 462.612 311.12 462.127 311.727 461.78C312.35 461.419 313.044 461.238 313.811 461.238C314.592 461.238 315.286 461.44 315.894 461.845C316.501 462.236 316.979 462.749 317.326 463.386C317.673 464.008 317.847 464.659 317.847 465.339V471.87H315.46ZM308.321 471.87V461.455H310.708V471.87H308.321ZM320.294 471.87V461.455H322.681V471.87H320.294ZM321.487 459.545C321.082 459.545 320.742 459.408 320.467 459.133C320.207 458.858 320.077 458.518 320.077 458.113C320.077 457.708 320.207 457.368 320.467 457.093C320.742 456.818 321.082 456.681 321.487 456.681C321.907 456.681 322.247 456.818 322.507 457.093C322.767 457.368 322.898 457.708 322.898 458.113C322.898 458.518 322.767 458.858 322.507 459.133C322.247 459.408 321.907 459.545 321.487 459.545ZM328.873 471.87L324.121 461.455H326.768L330.392 469.939H328.83L332.475 461.455H335.014L330.262 471.87H328.873ZM340.919 472.087C339.877 472.087 338.937 471.856 338.098 471.393C337.273 470.915 336.615 470.264 336.123 469.44C335.646 468.615 335.407 467.689 335.407 466.662C335.407 465.635 335.646 464.717 336.123 463.907C336.601 463.082 337.245 462.431 338.055 461.954C338.879 461.476 339.791 461.238 340.789 461.238C341.758 461.238 342.611 461.462 343.349 461.91C344.101 462.359 344.687 462.974 345.107 463.755C345.541 464.536 345.758 465.426 345.758 466.424C345.758 466.597 345.743 466.778 345.714 466.966C345.7 467.14 345.671 467.335 345.628 467.552H337.078V465.599H344.391L343.501 466.38C343.472 465.744 343.349 465.209 343.132 464.775C342.915 464.341 342.604 464.008 342.199 463.776C341.809 463.545 341.324 463.429 340.745 463.429C340.138 463.429 339.61 463.559 339.161 463.82C338.713 464.08 338.366 464.449 338.12 464.926C337.874 465.389 337.751 465.946 337.751 466.597C337.751 467.248 337.881 467.82 338.141 468.312C338.402 468.803 338.771 469.187 339.248 469.462C339.725 469.722 340.275 469.852 340.897 469.852C341.432 469.852 341.924 469.758 342.373 469.57C342.836 469.382 343.226 469.107 343.544 468.745L345.063 470.286C344.557 470.879 343.942 471.328 343.219 471.631C342.496 471.935 341.729 472.087 340.919 472.087ZM347.671 471.87V461.455H350.058V471.87H347.671ZM350.058 466.077L349.233 465.664C349.233 464.348 349.523 463.285 350.101 462.475C350.694 461.65 351.584 461.238 352.77 461.238C353.291 461.238 353.761 461.332 354.181 461.52C354.6 461.708 354.991 462.012 355.353 462.431L353.79 464.037C353.602 463.834 353.392 463.69 353.161 463.603C352.929 463.516 352.662 463.473 352.358 463.473C351.693 463.473 351.143 463.682 350.709 464.102C350.275 464.521 350.058 465.18 350.058 466.077ZM359.681 472.087C359.102 472.087 358.546 472.015 358.01 471.87C357.475 471.711 356.983 471.494 356.535 471.219C356.086 470.93 355.696 470.583 355.363 470.178L356.882 468.659C357.244 469.078 357.656 469.396 358.119 469.613C358.596 469.816 359.131 469.917 359.724 469.917C360.26 469.917 360.665 469.838 360.94 469.679C361.214 469.519 361.352 469.288 361.352 468.984C361.352 468.666 361.222 468.42 360.961 468.246C360.701 468.073 360.361 467.928 359.941 467.812C359.536 467.682 359.102 467.552 358.64 467.422C358.191 467.292 357.757 467.118 357.338 466.901C356.933 466.67 356.6 466.359 356.339 465.968C356.079 465.577 355.949 465.071 355.949 464.449C355.949 463.784 356.101 463.212 356.405 462.735C356.723 462.258 357.164 461.889 357.728 461.628C358.307 461.368 358.994 461.238 359.79 461.238C360.629 461.238 361.366 461.39 362.003 461.693C362.654 461.983 363.196 462.424 363.63 463.017L362.111 464.536C361.808 464.16 361.46 463.878 361.07 463.69C360.679 463.502 360.231 463.408 359.724 463.408C359.247 463.408 358.878 463.48 358.618 463.625C358.357 463.769 358.227 463.979 358.227 464.254C358.227 464.543 358.357 464.767 358.618 464.926C358.878 465.086 359.211 465.223 359.616 465.339C360.036 465.454 360.469 465.585 360.918 465.729C361.381 465.86 361.815 466.048 362.22 466.294C362.639 466.525 362.979 466.843 363.24 467.248C363.5 467.639 363.63 468.152 363.63 468.789C363.63 469.801 363.276 470.604 362.567 471.197C361.858 471.791 360.896 472.087 359.681 472.087ZM365.62 471.87V461.455H368.007V471.87H365.62ZM366.813 459.545C366.408 459.545 366.068 459.408 365.793 459.133C365.533 458.858 365.403 458.518 365.403 458.113C365.403 457.708 365.533 457.368 365.793 457.093C366.068 456.818 366.408 456.681 366.813 456.681C367.233 456.681 367.573 456.818 367.833 457.093C368.093 457.368 368.224 457.708 368.224 458.113C368.224 458.518 368.093 458.858 367.833 459.133C367.573 459.408 367.233 459.545 366.813 459.545ZM372.268 471.87V457.115H374.655V471.87H372.268ZM369.772 463.625V461.455H377.15V463.625H369.772ZM382.248 471.979L377.799 461.455H380.425L383.463 469.179H382.703L385.915 461.455H388.562L383.723 471.979H382.248ZM379.145 476.21L382.378 469.548L383.723 471.979L381.792 476.21H379.145Z" fill="#161A1B"/>
</g>
<path d="M69.3178 276.85L69.8449 246.355H77.0733L80.4239 264.087L84.0381 246.355H91.003L91.5301 276.85H86.7488L86.1841 256.557L82.6452 276.85H78.391L74.6262 256.407L74.1744 276.85H69.3178ZM104.748 277.301C102.414 277.301 100.582 276.925 99.2517 276.172C97.9466 275.394 97.0305 274.277 96.5034 272.821C95.9764 271.34 95.7128 269.533 95.7128 267.4V246.355H102.377V268.416C102.377 269.044 102.427 269.671 102.527 270.299C102.628 270.926 102.841 271.441 103.167 271.842C103.519 272.244 104.046 272.445 104.748 272.445C105.476 272.445 106.003 272.244 106.33 271.842C106.656 271.441 106.857 270.926 106.932 270.299C107.032 269.671 107.083 269.044 107.083 268.416V246.355H113.784V267.4C113.784 269.533 113.508 271.34 112.956 272.821C112.429 274.277 111.512 275.394 110.207 276.172C108.902 276.925 107.083 277.301 104.748 277.301ZM126.806 277.301C124.497 277.301 122.665 276.887 121.309 276.059C119.979 275.206 119.038 274.026 118.486 272.52C117.934 270.989 117.657 269.195 117.657 267.136V256.143C117.657 254.035 117.934 252.228 118.486 250.722C119.038 249.191 119.979 248.011 121.309 247.183C122.665 246.355 124.497 245.941 126.806 245.941C129.065 245.941 130.822 246.317 132.077 247.07C133.357 247.798 134.26 248.827 134.787 250.157C135.314 251.487 135.578 253.018 135.578 254.75V257.386H128.989V254.336C128.989 253.734 128.952 253.157 128.877 252.604C128.826 252.052 128.651 251.6 128.349 251.249C128.048 250.873 127.534 250.684 126.806 250.684C126.103 250.684 125.576 250.873 125.225 251.249C124.898 251.625 124.685 252.102 124.585 252.68C124.509 253.232 124.472 253.822 124.472 254.449V268.793C124.472 269.471 124.522 270.098 124.622 270.675C124.748 271.228 124.974 271.679 125.3 272.031C125.651 272.357 126.153 272.52 126.806 272.52C127.509 272.52 128.011 272.344 128.312 271.993C128.613 271.617 128.801 271.14 128.877 270.562C128.952 269.985 128.989 269.395 128.989 268.793V265.593H135.578V268.228C135.578 269.96 135.314 271.516 134.787 272.897C134.285 274.252 133.394 275.331 132.114 276.134C130.859 276.912 129.09 277.301 126.806 277.301ZM148.02 277.301C145.711 277.301 143.878 276.887 142.523 276.059C141.193 275.206 140.252 274.026 139.699 272.52C139.147 270.989 138.871 269.195 138.871 267.136V256.143C138.871 254.035 139.147 252.228 139.699 250.722C140.252 249.191 141.193 248.011 142.523 247.183C143.878 246.355 145.711 245.941 148.02 245.941C150.279 245.941 152.035 246.317 153.29 247.07C154.57 247.798 155.474 248.827 156.001 250.157C156.528 251.487 156.792 253.018 156.792 254.75V257.386H150.203V254.336C150.203 253.734 150.166 253.157 150.09 252.604C150.04 252.052 149.864 251.6 149.563 251.249C149.262 250.873 148.747 250.684 148.02 250.684C147.317 250.684 146.79 250.873 146.438 251.249C146.112 251.625 145.899 252.102 145.798 252.68C145.723 253.232 145.685 253.822 145.685 254.449V268.793C145.685 269.471 145.736 270.098 145.836 270.675C145.962 271.228 146.187 271.679 146.514 272.031C146.865 272.357 147.367 272.52 148.02 272.52C148.722 272.52 149.224 272.344 149.526 271.993C149.827 271.617 150.015 271.14 150.09 270.562C150.166 269.985 150.203 269.395 150.203 268.793V265.593H156.792V268.228C156.792 269.96 156.528 271.516 156.001 272.897C155.499 274.252 154.608 275.331 153.328 276.134C152.073 276.912 150.304 277.301 148.02 277.301Z" fill="url(#paint27_linear_482_5689)"/>
<path d="M68.4627 302.876V285.45H74.3142C75.3612 285.45 76.2217 285.651 76.8958 286.053C77.5699 286.44 78.0718 287.014 78.4017 287.774C78.7316 288.52 78.8965 289.43 78.8965 290.506C78.8965 291.854 78.6742 292.887 78.2296 293.604C77.785 294.307 77.1826 294.794 76.4225 295.067C75.6624 295.339 74.809 295.475 73.8625 295.475H72.3135V302.876H68.4627ZM72.3135 292.786H73.6043C74.0776 292.786 74.4361 292.7 74.6799 292.528C74.9238 292.356 75.0815 292.098 75.1532 291.754C75.2393 291.409 75.2823 290.972 75.2823 290.441C75.2823 289.997 75.2465 289.61 75.1747 289.28C75.1174 288.935 74.9668 288.663 74.723 288.462C74.4792 288.261 74.0991 288.161 73.5828 288.161H72.3135V292.786ZM80.7529 302.876V285.45H84.6037V300.273H88.6051V302.876H80.7529ZM89.4519 302.876L92.7434 285.45H97.1321L100.381 302.876H96.8309L96.25 299.197H93.69L93.0876 302.876H89.4519ZM94.0342 296.895H95.8843L94.9592 290.097L94.0342 296.895ZM102.786 302.876V288.312H100.161V285.45H109.261V288.312H106.658V302.876H102.786ZM110.796 302.876V285.45H118.325V288.053H114.646V292.442H117.852V295.131H114.646V302.876H110.796ZM125.115 303.134C123.809 303.134 122.777 302.905 122.017 302.446C121.257 301.987 120.712 301.327 120.382 300.467C120.052 299.606 119.887 298.581 119.887 297.39V290.915C119.887 289.71 120.052 288.684 120.382 287.838C120.712 286.992 121.257 286.347 122.017 285.902C122.777 285.443 123.809 285.214 125.115 285.214C126.434 285.214 127.474 285.443 128.234 285.902C129.008 286.347 129.561 286.992 129.89 287.838C130.22 288.684 130.385 289.71 130.385 290.915V297.39C130.385 298.581 130.22 299.606 129.89 300.467C129.561 301.327 129.008 301.987 128.234 302.446C127.474 302.905 126.434 303.134 125.115 303.134ZM125.115 300.402C125.516 300.402 125.81 300.302 125.997 300.101C126.183 299.9 126.305 299.642 126.362 299.326C126.42 299.011 126.448 298.688 126.448 298.358V289.968C126.448 289.624 126.42 289.301 126.362 289C126.305 288.684 126.183 288.426 125.997 288.226C125.81 288.025 125.516 287.924 125.115 287.924C124.742 287.924 124.462 288.025 124.276 288.226C124.089 288.426 123.967 288.684 123.91 289C123.852 289.301 123.824 289.624 123.824 289.968V298.358C123.824 298.688 123.845 299.011 123.888 299.326C123.946 299.642 124.06 299.9 124.233 300.101C124.419 300.302 124.713 300.402 125.115 300.402ZM132.729 302.876V285.45H137.526C138.702 285.45 139.721 285.579 140.581 285.838C141.442 286.096 142.109 286.562 142.582 287.236C143.069 287.896 143.313 288.835 143.313 290.054C143.313 290.771 143.256 291.409 143.141 291.969C143.026 292.528 142.811 293.016 142.496 293.432C142.195 293.833 141.757 294.17 141.184 294.443L143.571 302.876H139.592L137.677 295.067H136.58V302.876H132.729ZM136.58 292.851H137.655C138.2 292.851 138.623 292.758 138.925 292.571C139.226 292.37 139.434 292.091 139.549 291.732C139.678 291.359 139.742 290.915 139.742 290.398C139.742 289.653 139.606 289.072 139.333 288.656C139.061 288.24 138.559 288.032 137.827 288.032H136.58V292.851ZM145.564 302.876L145.865 285.45H149.995L151.91 295.583L153.975 285.45H157.955L158.257 302.876H155.524L155.202 291.28L153.179 302.876H150.748L148.597 291.194L148.339 302.876H145.564Z" fill="#222222"/>
<defs>
<filter id="filter0_d_482_5689" x="181.389" y="23.764" width="338.576" height="114.67" filterUnits="userSpaceOnUse" color-interpolation-filters="sRGB">
<feFlood flood-opacity="0" result="BackgroundImageFix"/>
<feColorMatrix in="SourceAlpha" type="matrix" values="0 0 0 0 0 0 0 0 0 0 0 0 0 0 0 0 0 0 127 0" result="hardAlpha"/>
<feOffset/>
<feGaussianBlur stdDeviation="8.73179"/>
<feComposite in2="hardAlpha" operator="out"/>
<feColorMatrix type="matrix" values="0 0 0 0 0 0 0 0 0 0 0 0 0 0 0 0 0 0 0.16 0"/>
<feBlend mode="normal" in2="BackgroundImageFix" result="effect1_dropShadow_482_5689"/>
<feBlend mode="normal" in="SourceGraphic" in2="effect1_dropShadow_482_5689" result="shape"/>
</filter>
<filter id="filter1_d_482_5689" x="211.859" y="56.416" width="58.097" height="58.097" filterUnits="userSpaceOnUse" color-interpolation-filters="sRGB">
<feFlood flood-opacity="0" result="BackgroundImageFix"/>
<feColorMatrix in="SourceAlpha" type="matrix" values="0 0 0 0 0 0 0 0 0 0 0 0 0 0 0 0 0 0 127 0" result="hardAlpha"/>
<feOffset dx="2.18295" dy="4.36589"/>
<feGaussianBlur stdDeviation="2.18295"/>
<feComposite in2="hardAlpha" operator="out"/>
<feColorMatrix type="matrix" values="0 0 0 0 0 0 0 0 0 0 0 0 0 0 0 0 0 0 0.16 0"/>
<feBlend mode="normal" in2="BackgroundImageFix" result="effect1_dropShadow_482_5689"/>
<feBlend mode="normal" in="SourceGraphic" in2="effect1_dropShadow_482_5689" result="shape"/>
</filter>
<filter id="filter2_d_482_5689" x="277.053" y="128.241" width="321.112" height="97.2067" filterUnits="userSpaceOnUse" color-interpolation-filters="sRGB">
<feFlood flood-opacity="0" result="BackgroundImageFix"/>
<feColorMatrix in="SourceAlpha" type="matrix" values="0 0 0 0 0 0 0 0 0 0 0 0 0 0 0 0 0 0 127 0" result="hardAlpha"/>
<feOffset/>
<feGaussianBlur stdDeviation="4.36589"/>
<feComposite in2="hardAlpha" operator="out"/>
<feColorMatrix type="matrix" values="0 0 0 0 0 0 0 0 0 0 0 0 0 0 0 0 0 0 0.16 0"/>
<feBlend mode="normal" in2="BackgroundImageFix" result="effect1_dropShadow_482_5689"/>
<feBlend mode="normal" in="SourceGraphic" in2="effect1_dropShadow_482_5689" result="shape"/>
</filter>
<filter id="filter3_d_482_5689" x="298.791" y="152.024" width="58.097" height="58.097" filterUnits="userSpaceOnUse" color-interpolation-filters="sRGB">
<feFlood flood-opacity="0" result="BackgroundImageFix"/>
<feColorMatrix in="SourceAlpha" type="matrix" values="0 0 0 0 0 0 0 0 0 0 0 0 0 0 0 0 0 0 127 0" result="hardAlpha"/>
<feOffset dx="2.18295" dy="4.36589"/>
<feGaussianBlur stdDeviation="2.18295"/>
<feComposite in2="hardAlpha" operator="out"/>
<feColorMatrix type="matrix" values="0 0 0 0 0 0 0 0 0 0 0 0 0 0 0 0 0 0 0.16 0"/>
<feBlend mode="normal" in2="BackgroundImageFix" result="effect1_dropShadow_482_5689"/>
<feBlend mode="normal" in="SourceGraphic" in2="effect1_dropShadow_482_5689" result="shape"/>
</filter>
<filter id="filter4_d_482_5689" x="298.564" y="223.753" width="321.112" height="97.2067" filterUnits="userSpaceOnUse" color-interpolation-filters="sRGB">
<feFlood flood-opacity="0" result="BackgroundImageFix"/>
<feColorMatrix in="SourceAlpha" type="matrix" values="0 0 0 0 0 0 0 0 0 0 0 0 0 0 0 0 0 0 127 0" result="hardAlpha"/>
<feOffset/>
<feGaussianBlur stdDeviation="4.36589"/>
<feComposite in2="hardAlpha" operator="out"/>
<feColorMatrix type="matrix" values="0 0 0 0 0 0 0 0 0 0 0 0 0 0 0 0 0 0 0.16 0"/>
<feBlend mode="normal" in2="BackgroundImageFix" result="effect1_dropShadow_482_5689"/>
<feBlend mode="normal" in="SourceGraphic" in2="effect1_dropShadow_482_5689" result="shape"/>
</filter>
<filter id="filter5_d_482_5689" x="319.302" y="247.767" width="58.097" height="58.097" filterUnits="userSpaceOnUse" color-interpolation-filters="sRGB">
<feFlood flood-opacity="0" result="BackgroundImageFix"/>
<feColorMatrix in="SourceAlpha" type="matrix" values="0 0 0 0 0 0 0 0 0 0 0 0 0 0 0 0 0 0 127 0" result="hardAlpha"/>
<feOffset dx="2.18295" dy="4.36589"/>
<feGaussianBlur stdDeviation="2.18295"/>
<feComposite in2="hardAlpha" operator="out"/>
<feColorMatrix type="matrix" values="0 0 0 0 0 0 0 0 0 0 0 0 0 0 0 0 0 0 0.16 0"/>
<feBlend mode="normal" in2="BackgroundImageFix" result="effect1_dropShadow_482_5689"/>
<feBlend mode="normal" in="SourceGraphic" in2="effect1_dropShadow_482_5689" result="shape"/>
</filter>
<filter id="filter6_d_482_5689" x="276.737" y="318.708" width="321.112" height="97.2067" filterUnits="userSpaceOnUse" color-interpolation-filters="sRGB">
<feFlood flood-opacity="0" result="BackgroundImageFix"/>
<feColorMatrix in="SourceAlpha" type="matrix" values="0 0 0 0 0 0 0 0 0 0 0 0 0 0 0 0 0 0 127 0" result="hardAlpha"/>
<feOffset/>
<feGaussianBlur stdDeviation="4.36589"/>
<feComposite in2="hardAlpha" operator="out"/>
<feColorMatrix type="matrix" values="0 0 0 0 0 0 0 0 0 0 0 0 0 0 0 0 0 0 0.16 0"/>
<feBlend mode="normal" in2="BackgroundImageFix" result="effect1_dropShadow_482_5689"/>
<feBlend mode="normal" in="SourceGraphic" in2="effect1_dropShadow_482_5689" result="shape"/>
</filter>
<filter id="filter7_d_482_5689" x="298.566" y="344.903" width="58.097" height="58.097" filterUnits="userSpaceOnUse" color-interpolation-filters="sRGB">
<feFlood flood-opacity="0" result="BackgroundImageFix"/>
<feColorMatrix in="SourceAlpha" type="matrix" values="0 0 0 0 0 0 0 0 0 0 0 0 0 0 0 0 0 0 127 0" result="hardAlpha"/>
<feOffset dx="2.18295" dy="4.36589"/>
<feGaussianBlur stdDeviation="2.18295"/>
<feComposite in2="hardAlpha" operator="out"/>
<feColorMatrix type="matrix" values="0 0 0 0 0 0 0 0 0 0 0 0 0 0 0 0 0 0 0.16 0"/>
<feBlend mode="normal" in2="BackgroundImageFix" result="effect1_dropShadow_482_5689"/>
<feBlend mode="normal" in="SourceGraphic" in2="effect1_dropShadow_482_5689" result="shape"/>
</filter>
<filter id="filter8_d_482_5689" x="189.418" y="414.759" width="321.112" height="97.2067" filterUnits="userSpaceOnUse" color-interpolation-filters="sRGB">
<feFlood flood-opacity="0" result="BackgroundImageFix"/>
<feColorMatrix in="SourceAlpha" type="matrix" values="0 0 0 0 0 0 0 0 0 0 0 0 0 0 0 0 0 0 127 0" result="hardAlpha"/>
<feOffset/>
<feGaussianBlur stdDeviation="4.36589"/>
<feComposite in2="hardAlpha" operator="out"/>
<feColorMatrix type="matrix" values="0 0 0 0 0 0 0 0 0 0 0 0 0 0 0 0 0 0 0.16 0"/>
<feBlend mode="normal" in2="BackgroundImageFix" result="effect1_dropShadow_482_5689"/>
<feBlend mode="normal" in="SourceGraphic" in2="effect1_dropShadow_482_5689" result="shape"/>
</filter>
<filter id="filter9_d_482_5689" x="211.861" y="438.993" width="58.097" height="58.097" filterUnits="userSpaceOnUse" color-interpolation-filters="sRGB">
<feFlood flood-opacity="0" result="BackgroundImageFix"/>
<feColorMatrix in="SourceAlpha" type="matrix" values="0 0 0 0 0 0 0 0 0 0 0 0 0 0 0 0 0 0 127 0" result="hardAlpha"/>
<feOffset dx="2.18295" dy="4.36589"/>
<feGaussianBlur stdDeviation="2.18295"/>
<feComposite in2="hardAlpha" operator="out"/>
<feColorMatrix type="matrix" values="0 0 0 0 0 0 0 0 0 0 0 0 0 0 0 0 0 0 0.16 0"/>
<feBlend mode="normal" in2="BackgroundImageFix" result="effect1_dropShadow_482_5689"/>
<feBlend mode="normal" in="SourceGraphic" in2="effect1_dropShadow_482_5689" result="shape"/>
</filter>
<linearGradient id="paint0_linear_482_5689" x1="211.245" y1="50.2066" x2="487.933" y2="114.604" gradientUnits="userSpaceOnUse">
<stop offset="0.0812499" stop-color="#FDFDFD"/>
<stop offset="1" stop-color="#FAFAFA"/>
</linearGradient>
<linearGradient id="paint1_linear_482_5689" x1="276.284" y1="58.3701" x2="296.885" y2="152.046" gradientUnits="userSpaceOnUse">
<stop offset="0.204" stop-color="#F0F0F0"/>
<stop offset="1" stop-color="#EDEDED"/>
</linearGradient>
<linearGradient id="paint2_linear_482_5689" x1="207.174" y1="60.5821" x2="320.687" y2="57.8534" gradientUnits="userSpaceOnUse">
<stop offset="0.00122938" stop-color="#2DC7DF"/>
<stop offset="1" stop-color="#4FA3F1"/>
</linearGradient>
<linearGradient id="paint3_linear_482_5689" x1="221.313" y1="63.6218" x2="256.218" y2="98.5267" gradientUnits="userSpaceOnUse">
<stop offset="0.1585" stop-color="white"/>
<stop offset="1" stop-color="#EFEFEF"/>
</linearGradient>
<linearGradient id="paint4_linear_482_5689" x1="298.177" y1="145.952" x2="574.866" y2="210.349" gradientUnits="userSpaceOnUse">
<stop offset="0.0812499" stop-color="#FDFDFD"/>
<stop offset="1" stop-color="#FAFAFA"/>
</linearGradient>
<linearGradient id="paint5_linear_482_5689" x1="363.41" y1="154.578" x2="384.011" y2="248.254" gradientUnits="userSpaceOnUse">
<stop offset="0.204" stop-color="#F0F0F0"/>
<stop offset="1" stop-color="#EDEDED"/>
</linearGradient>
<linearGradient id="paint6_linear_482_5689" x1="293.402" y1="155.541" x2="406.915" y2="152.812" gradientUnits="userSpaceOnUse">
<stop offset="0.00122938" stop-color="#2DC7DF"/>
<stop offset="1" stop-color="#4FA3F1"/>
</linearGradient>
<linearGradient id="paint7_linear_482_5689" x1="308.245" y1="159.23" x2="343.15" y2="194.135" gradientUnits="userSpaceOnUse">
<stop offset="0.1585" stop-color="white"/>
<stop offset="1" stop-color="#EFEFEF"/>
</linearGradient>
<linearGradient id="paint8_linear_482_5689" x1="319.688" y1="241.463" x2="596.377" y2="305.86" gradientUnits="userSpaceOnUse">
<stop offset="0.0812499" stop-color="#FDFDFD"/>
<stop offset="1" stop-color="#FAFAFA"/>
</linearGradient>
<linearGradient id="paint9_linear_482_5689" x1="383.29" y1="249.727" x2="403.89" y2="343.403" gradientUnits="userSpaceOnUse">
<stop offset="0.204" stop-color="#F0F0F0"/>
<stop offset="1" stop-color="#EDEDED"/>
</linearGradient>
<linearGradient id="paint10_linear_482_5689" x1="314.141" y1="251.592" x2="427.654" y2="248.863" gradientUnits="userSpaceOnUse">
<stop offset="0.00122938" stop-color="#2DC7DF"/>
<stop offset="1" stop-color="#4FA3F1"/>
</linearGradient>
<linearGradient id="paint11_linear_482_5689" x1="328.756" y1="254.972" x2="363.662" y2="289.877" gradientUnits="userSpaceOnUse">
<stop offset="0.1585" stop-color="white"/>
<stop offset="1" stop-color="#EFEFEF"/>
</linearGradient>
<linearGradient id="paint12_linear_482_5689" x1="297.861" y1="336.419" x2="574.549" y2="400.816" gradientUnits="userSpaceOnUse">
<stop offset="0.0812499" stop-color="#FDFDFD"/>
<stop offset="1" stop-color="#FAFAFA"/>
</linearGradient>
<linearGradient id="paint13_linear_482_5689" x1="363.218" y1="345.334" x2="383.818" y2="439.01" gradientUnits="userSpaceOnUse">
<stop offset="0.204" stop-color="#F0F0F0"/>
<stop offset="1" stop-color="#EDEDED"/>
</linearGradient>
<linearGradient id="paint14_linear_482_5689" x1="293.404" y1="347.639" x2="406.917" y2="344.91" gradientUnits="userSpaceOnUse">
<stop offset="0.00122938" stop-color="#2DC7DF"/>
<stop offset="1" stop-color="#4FA3F1"/>
</linearGradient>
<linearGradient id="paint15_linear_482_5689" x1="308.02" y1="352.109" x2="342.925" y2="387.014" gradientUnits="userSpaceOnUse">
<stop offset="0.1585" stop-color="white"/>
<stop offset="1" stop-color="#EFEFEF"/>
</linearGradient>
<linearGradient id="paint16_linear_482_5689" x1="210.541" y1="432.47" x2="487.23" y2="496.867" gradientUnits="userSpaceOnUse">
<stop offset="0.0812499" stop-color="#FDFDFD"/>
<stop offset="1" stop-color="#FAFAFA"/>
</linearGradient>
<linearGradient id="paint17_linear_482_5689" x1="276.285" y1="441.082" x2="296.886" y2="534.758" gradientUnits="userSpaceOnUse">
<stop offset="0.204" stop-color="#F0F0F0"/>
<stop offset="1" stop-color="#EDEDED"/>
</linearGradient>
<linearGradient id="paint18_linear_482_5689" x1="207.175" y1="442.598" x2="320.688" y2="439.869" gradientUnits="userSpaceOnUse">
<stop offset="0.00122938" stop-color="#2DC7DF"/>
<stop offset="1" stop-color="#4FA3F1"/>
</linearGradient>
<linearGradient id="paint19_linear_482_5689" x1="221.315" y1="446.199" x2="256.22" y2="481.104" gradientUnits="userSpaceOnUse">
<stop offset="0.1585" stop-color="white"/>
<stop offset="1" stop-color="#EFEFEF"/>
</linearGradient>
<linearGradient id="paint20_linear_482_5689" x1="41.0654" y1="200.517" x2="184.8" y2="344.252" gradientUnits="userSpaceOnUse">
<stop offset="0.1585" stop-color="#ECECEC"/>
<stop offset="1" stop-color="#F4F4F4"/>
</linearGradient>
<linearGradient id="paint21_linear_482_5689" x1="49.5281" y1="208.982" x2="176.332" y2="335.786" gradientUnits="userSpaceOnUse">
<stop offset="0.204" stop-color="#FCFCFC"/>
<stop offset="1" stop-color="#D8D8D8"/>
</linearGradient>
<linearGradient id="paint22_linear_482_5689" x1="151.262" y1="136.303" x2="168.878" y2="136.064" gradientUnits="userSpaceOnUse">
<stop offset="0.00122938" stop-color="#2DC7DF"/>
<stop offset="1" stop-color="#4FA3F1"/>
</linearGradient>
<linearGradient id="paint23_linear_482_5689" x1="216.938" y1="184.871" x2="234.555" y2="184.631" gradientUnits="userSpaceOnUse">
<stop offset="0.00122938" stop-color="#2DC7DF"/>
<stop offset="1" stop-color="#4FA3F1"/>
</linearGradient>
<linearGradient id="paint24_linear_482_5689" x1="242.945" y1="267.28" x2="260.562" y2="267.04" gradientUnits="userSpaceOnUse">
<stop offset="0.00122938" stop-color="#2DC7DF"/>
<stop offset="1" stop-color="#4FA3F1"/>
</linearGradient>
<linearGradient id="paint25_linear_482_5689" x1="151.262" y1="397.166" x2="168.878" y2="396.927" gradientUnits="userSpaceOnUse">
<stop offset="0.00122938" stop-color="#2DC7DF"/>
<stop offset="1" stop-color="#4FA3F1"/>
</linearGradient>
<linearGradient id="paint26_linear_482_5689" x1="216.75" y1="349.14" x2="234.366" y2="348.9" gradientUnits="userSpaceOnUse">
<stop offset="0.00122938" stop-color="#2DC7DF"/>
<stop offset="1" stop-color="#4FA3F1"/>
</linearGradient>
<linearGradient id="paint27_linear_482_5689" x1="67.4109" y1="244.877" x2="159.284" y2="242.323" gradientUnits="userSpaceOnUse">
<stop offset="0.00122938" stop-color="#2DC7DF"/>
<stop offset="1" stop-color="#4FA3F1"/>
</linearGradient>
<clipPath id="clip0_482_5689">
<rect width="613.408" height="544.645" fill="white" transform="translate(0.591797)"/>
</clipPath>
</defs>
</svg>
