<svg width="460" height="230" viewBox="0 0 460 230" fill="none" xmlns="http://www.w3.org/2000/svg">
<g clip-path="url(#clip0_134_3902)">
<path d="M391.193 199.881H74.2735C73.4175 199.881 72.7295 199.431 72.7295 198.881C72.7295 198.327 73.4255 197.881 74.2735 197.881H391.185C392.041 197.881 392.729 198.332 392.729 198.881C392.737 199.431 392.041 199.881 391.193 199.881Z" fill="#262F5F"/>
<path d="M374.961 165.694C372.595 165.694 370.676 163.775 370.676 161.408C370.676 159.041 372.595 157.123 374.961 157.123C377.328 157.123 379.247 159.041 379.247 161.408C379.247 163.775 377.317 165.694 374.961 165.694ZM374.961 158.892C373.571 158.892 372.434 160.029 372.434 161.42C372.434 162.81 373.571 163.947 374.961 163.947C376.352 163.947 377.489 162.81 377.489 161.42C377.489 160.018 376.352 158.892 374.961 158.892Z" fill="#9DBDE4"/>
<path d="M72.6766 67.0978C70.643 67.0978 69 65.4434 69 63.4212C69 61.3876 70.6545 59.7446 72.6766 59.7446C74.7102 59.7446 76.3532 61.3991 76.3532 63.4212C76.3532 65.4434 74.6987 67.0978 72.6766 67.0978ZM72.6766 61.2497C71.4817 61.2497 70.5051 62.2263 70.5051 63.4212C70.5051 64.6161 71.4817 65.5927 72.6766 65.5927C73.8715 65.5927 74.8481 64.6161 74.8481 63.4212C74.8481 62.2263 73.8715 61.2497 72.6766 61.2497Z" fill="#9DBDE4"/>
<path d="M81.4658 224.399H79.2024V221.216C79.2024 220.86 78.9152 220.573 78.559 220.573C78.2028 220.573 77.9156 220.86 77.9156 221.216V224.399H75.6522C75.296 224.399 75.0088 224.686 75.0088 225.042C75.0088 225.398 75.296 225.686 75.6522 225.686H77.9156V228.868C77.9156 229.224 78.2028 229.511 78.559 229.511C78.9152 229.511 79.2024 229.224 79.2024 228.868V225.686H81.4658C81.822 225.686 82.1092 225.398 82.1092 225.042C82.1092 224.686 81.822 224.399 81.4658 224.399Z" fill="#9DBDE4"/>
<path d="M373.733 8.69732H370.343V3.91774C370.343 3.38923 369.918 2.95264 369.378 2.95264C368.85 2.95264 368.413 3.37774 368.413 3.91774V8.69732H365.024C364.495 8.69732 364.059 9.12242 364.059 9.66242C364.059 10.2024 364.484 10.6275 365.024 10.6275H368.413V15.4071C368.413 15.9356 368.838 16.3722 369.378 16.3722C369.907 16.3722 370.343 15.9471 370.343 15.4071V10.6275H373.733C374.261 10.6275 374.698 10.2024 374.698 9.66242C374.698 9.12242 374.273 8.69732 373.733 8.69732Z" fill="#9DBDE4"/>
<path d="M353.522 182.704H111.465C108.546 182.704 106.168 180.337 106.168 177.407V31.7448C106.168 28.8265 108.535 26.4482 111.465 26.4482H353.511C356.429 26.4482 358.808 28.815 358.808 31.7448V177.418C358.808 180.337 356.441 182.704 353.522 182.704Z" fill="#333F83"/>
<path d="M351.536 34.606H113.453V173.225H351.536V34.606Z" fill="white"/>
<path d="M116.831 34.606H113.453V173.225H116.831V34.606Z" fill="#0D0D0D"/>
<path d="M205.86 37.9839L116.829 127.026V163.103L241.948 37.9839H205.86Z" fill="#F2F8FF"/>
<path d="M351.534 34.606V69.2004L247.509 173.225H166.911L303.876 36.2604V34.606H351.534Z" fill="#F2F8FF"/>
<path d="M351.534 80.6323V102.634L280.944 173.225H258.941L351.534 80.6323Z" fill="#F2F8FF"/>
<path d="M351.535 34.606H348.157V173.225H351.535V34.606Z" fill="#0D0D0D"/>
<path d="M113.446 34.608V37.9858L351.529 37.9858V34.608L113.446 34.608Z" fill="#0D0D0D"/>
<path d="M369.011 197.87H96.0233C89.4629 197.87 84.1318 192.55 84.1318 185.978V184.393H380.879V185.978C380.891 192.55 375.571 197.87 369.011 197.87Z" fill="#0D0D0D"/>
<path d="M364.702 181.417H100.286C98.8152 181.417 97.6318 182.612 97.6318 184.071V184.393H367.368V184.071C367.356 182.6 366.173 181.417 364.702 181.417Z" fill="#739CD2"/>
<path d="M236.883 184.427H228.151H205.861L208.171 187.448C208.814 188.299 209.825 188.793 210.894 188.793H228.151H236.883H254.14C255.208 188.793 256.219 188.299 256.863 187.448L259.172 184.427H236.883Z" fill="#9DBDE4"/>
<g filter="url(#filter0_d_134_3902)">
<path d="M425.877 67H238.129C235.142 67 232.729 69.4128 232.729 72.4V124.079C232.729 127.066 235.142 129.479 238.129 129.479H287.155L291.762 149L319.164 129.479H425.877C428.864 129.479 431.277 127.066 431.277 124.079V72.4C431.277 69.4128 428.864 67 425.877 67Z" fill="white"/>
</g>
<path d="M392.501 117.438C403.148 117.438 411.78 108.807 411.78 98.159C411.78 87.5115 403.148 78.8799 392.501 78.8799C381.853 78.8799 373.222 87.5115 373.222 98.159C373.222 108.807 381.853 117.438 392.501 117.438Z" fill="white"/>
<path d="M397.498 94.1021C398.148 91.3479 396.443 88.5879 393.689 87.9376C390.935 87.2872 388.175 88.9928 387.524 91.747C386.874 94.5012 388.579 97.2611 391.334 97.9114C394.088 98.5618 396.848 96.8563 397.498 94.1021Z" fill="#739CD2"/>
<path d="M392.499 99.124C387.295 99.124 383.078 103.341 383.078 108.545H401.932C401.932 103.352 397.704 99.124 392.499 99.124Z" fill="#739CD2"/>
<path d="M280.962 80.9138H248.47C247.172 80.9138 246.104 79.8568 246.104 78.547C246.104 77.2487 247.161 76.1802 248.47 76.1802H280.962C282.261 76.1802 283.329 77.2372 283.329 78.547C283.318 79.8568 282.261 80.9138 280.962 80.9138Z" fill="#262F5F"/>
<path d="M314.982 118.944H248.103C247 118.944 246.104 118.047 246.104 116.944C246.104 115.841 247 114.945 248.103 114.945H314.982C316.085 114.945 316.981 115.841 316.981 116.944C316.97 118.047 316.085 118.944 314.982 118.944Z" fill="#739CD2"/>
<path d="M274.321 90.9326H248.16C247.045 90.9326 246.092 91.8518 246.115 92.9662C246.138 94.0462 247.022 94.9194 248.114 94.9194H274.321C275.424 94.9194 276.32 94.0233 276.32 92.9203C276.309 91.8173 275.424 90.9326 274.321 90.9326Z" fill="#739CD2"/>
<path d="M341.097 90.9326H281.927C280.824 90.9326 279.928 91.8288 279.928 92.9318C279.928 94.0347 280.824 94.9309 281.927 94.9309H341.155C342.246 94.9309 343.131 94.0577 343.154 92.9777C343.165 91.8403 342.212 90.9326 341.097 90.9326Z" fill="#739CD2"/>
<path d="M323.864 104.938C323.864 103.835 322.967 102.939 321.864 102.939H248.103C247 102.939 246.104 103.835 246.104 104.938C246.104 106.041 247 106.937 248.103 106.937H321.864C322.967 106.926 323.864 106.041 323.864 104.938Z" fill="#739CD2"/>
<path d="M355.7 102.939H330.504C329.401 102.939 328.505 103.835 328.505 104.938C328.505 106.041 329.401 106.937 330.504 106.937H355.7C356.803 106.937 357.699 106.041 357.699 104.938C357.699 103.835 356.803 102.939 355.7 102.939Z" fill="#739CD2"/>
<path d="M94.277 34.6059H80.6736C79.6395 34.6059 78.8008 33.7672 78.8008 32.7331C78.8008 31.6991 79.6395 30.8604 80.6736 30.8604H94.277C95.311 30.8604 96.1497 31.6991 96.1497 32.7331C96.1497 33.7672 95.311 34.6059 94.277 34.6059Z" fill="#9DBDE4"/>
<path d="M111.533 17.3489C110.499 17.3489 109.66 16.5102 109.66 15.4762V1.87277C109.66 0.838723 110.499 0 111.533 0C112.567 0 113.406 0.838723 113.406 1.87277V15.4762C113.406 16.5102 112.567 17.3489 111.533 17.3489Z" fill="#9DBDE4"/>
<path d="M99.0564 22.1284C98.5738 22.1284 98.1028 21.9445 97.7351 21.5769L88.3943 12.236C87.6589 11.5007 87.6589 10.3173 88.3943 9.59348C89.1296 8.85816 90.313 8.85816 91.0368 9.59348L100.378 18.9343C101.113 19.6697 101.113 20.8531 100.378 21.5769C100.01 21.9445 99.5275 22.1284 99.0564 22.1284Z" fill="#9DBDE4"/>
</g>
<defs>
<filter id="filter0_d_134_3902" x="220.729" y="55" width="222.548" height="106" filterUnits="userSpaceOnUse" color-interpolation-filters="sRGB">
<feFlood flood-opacity="0" result="BackgroundImageFix"/>
<feColorMatrix in="SourceAlpha" type="matrix" values="0 0 0 0 0 0 0 0 0 0 0 0 0 0 0 0 0 0 127 0" result="hardAlpha"/>
<feOffset/>
<feGaussianBlur stdDeviation="6"/>
<feComposite in2="hardAlpha" operator="out"/>
<feColorMatrix type="matrix" values="0 0 0 0 0 0 0 0 0 0 0 0 0 0 0 0 0 0 0.12 0"/>
<feBlend mode="normal" in2="BackgroundImageFix" result="effect1_dropShadow_134_3902"/>
<feBlend mode="normal" in="SourceGraphic" in2="effect1_dropShadow_134_3902" result="shape"/>
</filter>
<clipPath id="clip0_134_3902">
<rect width="459.574" height="229.5" fill="white"/>
</clipPath>
</defs>
</svg>
